<svg width="28" height="32" viewBox="0 0 28 32" fill="none" xmlns="http://www.w3.org/2000/svg">
<g clip-path="url(#clip0_8_61)">
<path d="M12.5941 19.7689L12.5983 18.5895" stroke="#ABA9B5" stroke-width="2"/>
<path d="M12.5983 18.5894C12.6026 18.5831 12.6116 18.5802 12.6254 18.5804C12.7242 18.5829 12.8159 18.5832 12.9007 18.5815C12.9099 18.5813 12.9187 18.5775 12.9251 18.5708C12.9316 18.5641 12.9352 18.555 12.9352 18.5456V18.1534C12.9352 18.1482 12.934 18.143 12.9318 18.1382C12.9296 18.1335 12.9264 18.1293 12.9224 18.126C12.9184 18.1227 12.9137 18.1203 12.9087 18.1191C12.9037 18.1178 12.8985 18.1177 12.8934 18.1188C12.7368 18.1519 12.5395 18.1667 12.5162 17.9488C12.5082 17.8736 12.5685 17.8168 12.6287 17.7862C12.6522 17.7742 12.689 17.7695 12.7389 17.7719C12.8178 17.7755 12.8776 17.7787 12.9182 17.7817C12.9199 17.7819 12.9215 17.7817 12.9231 17.7811C12.9247 17.7806 12.9262 17.7797 12.9275 17.7785C12.9287 17.7773 12.9297 17.7759 12.9304 17.7743C12.931 17.7728 12.9314 17.7711 12.9314 17.7693V17.3427C12.9314 17.3326 12.9275 17.3228 12.9206 17.3155C12.9136 17.3083 12.9042 17.3041 12.8942 17.3039L12.613 17.2972C12.6119 17.2972 12.6108 17.2969 12.6098 17.2964C12.5999 17.2915 12.5963 17.285 12.5989 17.2767" stroke="#F5CCB5" stroke-width="2"/>
<path d="M12.5989 17.2768L12.596 16.1923" stroke="#ABA9B5" stroke-width="2"/>
<path d="M12.596 16.1922C12.5988 14.1053 12.5971 12.0189 12.5909 9.93318C12.5888 9.18423 12.5966 8.54658 12.592 7.88244C12.592 7.87034 12.589 7.83652 12.583 7.78098C12.5825 7.77622 12.5803 7.77181 12.5768 7.76861C12.5733 7.76541 12.5688 7.76365 12.5641 7.76367H9.173C9.17096 7.76367 9.16894 7.76408 9.16706 7.76488C9.16517 7.76567 9.16346 7.76683 9.16202 7.7683C9.16058 7.76977 9.15943 7.77151 9.15865 7.77343C9.15787 7.77535 9.15747 7.7774 9.15747 7.77948V23.873C9.15747 23.8781 9.15946 23.883 9.163 23.8866C9.16655 23.8902 9.17135 23.8923 9.17636 23.8923C10.2847 23.8951 11.3866 23.8966 12.482 23.8968C12.502 23.8968 12.5332 23.8935 12.5756 23.8869C12.5786 23.8865 12.5813 23.885 12.5834 23.8828C12.5854 23.8805 12.5867 23.8776 12.5869 23.8745C12.5939 23.7821 12.5974 23.7242 12.5974 23.7009C12.5958 22.5302 12.596 21.4657 12.5981 20.5073C12.5986 20.2616 12.5973 20.0155 12.5941 19.7688" stroke="#8199B0" stroke-width="2"/>
<path d="M12.596 16.1923C12.1514 16.4499 11.6794 16.6688 11.3872 17.1224C10.9495 17.8021 10.9871 18.7305 11.659 19.2427C11.7827 19.337 11.8866 19.4059 11.9707 19.4493C12.1774 19.556 12.3852 19.6625 12.5941 19.7689" stroke="#354A6D" stroke-width="2"/>
<path d="M12.5989 17.2767C12.5939 17.2858 12.5889 17.2906 12.5838 17.291C12.3255 17.3172 12.1447 17.4504 12.0415 17.6905C11.9886 17.8133 11.9753 17.9365 12.0016 18.0603C12.0692 18.3787 12.2681 18.5551 12.5983 18.5894" stroke="#A97D72" stroke-width="2"/>
<path d="M13.2657 7.95217C13.2657 7.95716 13.2677 7.96194 13.2712 7.96547C13.2746 7.96899 13.2793 7.97097 13.2842 7.97097H14.3847C14.3892 7.97096 14.3935 7.96932 14.3968 7.96633C14.4002 7.96335 14.4024 7.95923 14.403 7.95474L14.4246 7.79004C14.4249 7.78738 14.4247 7.78468 14.424 7.78211C14.4232 7.77954 14.4219 7.77716 14.4202 7.77514C14.4185 7.77311 14.4163 7.77149 14.414 7.77038C14.4116 7.76926 14.409 7.76868 14.4063 7.76868H13.2842C13.2793 7.76868 13.2746 7.77066 13.2712 7.77418C13.2677 7.77771 13.2657 7.78249 13.2657 7.78747V7.95217Z" stroke="#99DBE5" stroke-width="2"/>
<path d="M13.3237 8.28798C13.3107 8.28428 13.2985 8.28456 13.2872 8.28883C13.284 8.29008 13.2812 8.29215 13.279 8.29485C13.2769 8.29756 13.2755 8.30078 13.275 8.30421C13.2712 8.33013 13.2694 8.35164 13.2695 8.36873C13.2744 8.82302 13.2749 9.19507 13.2708 9.48488C13.2701 9.52746 13.2727 9.5689 13.2786 9.60921C13.279 9.61227 13.2806 9.61506 13.2829 9.61706C13.2853 9.61906 13.2883 9.62014 13.2914 9.6201C13.6203 9.61184 13.958 9.6112 14.3043 9.61818C14.836 9.62865 15.3945 9.75874 15.867 10.0198C16.2025 10.2052 16.5044 10.4403 16.7725 10.7251C16.8511 10.8086 16.9232 10.894 16.9889 10.9813C17.0755 11.0965 17.1402 11.1876 17.183 11.2545C17.4026 11.5986 17.5561 11.9762 17.6435 12.3875C17.6722 12.5224 17.6999 12.6481 17.7264 12.7648C17.7271 12.7677 17.7285 12.7705 17.7306 12.7727C17.7326 12.7749 17.7353 12.7765 17.7382 12.7774C17.8447 12.809 17.9049 12.8764 17.9187 12.9797C17.9569 13.2649 17.559 13.3616 17.4742 13.0935C17.4348 12.9695 17.4683 12.8707 17.5745 12.7972C17.5793 12.7939 17.583 12.7893 17.5854 12.7839C17.5877 12.7785 17.5885 12.7725 17.5877 12.7667C17.5262 12.3247 17.3948 11.8793 17.1685 11.4944C16.8084 10.8817 16.2899 10.3676 15.6504 10.0698C15.2925 9.90315 14.9237 9.78993 14.5367 9.76088C14.1517 9.73225 13.8381 9.7455 13.2918 9.76088C13.2854 9.76104 13.2794 9.76373 13.275 9.76836C13.2705 9.77299 13.2681 9.77919 13.2681 9.78566V10.7328C13.2681 10.7371 13.2695 10.7412 13.2721 10.7445C13.2748 10.7478 13.2784 10.7501 13.2825 10.751C13.3019 10.7554 13.3259 10.7575 13.3545 10.7574C13.6094 10.7558 13.9168 10.7562 14.2768 10.7585C14.4997 10.7598 14.7173 10.7941 14.9296 10.8617C15.4969 11.0422 15.9432 11.3876 16.2685 11.8977C16.6449 12.4875 16.7542 13.2166 16.589 13.898C16.5402 14.0998 16.4844 14.2671 16.4215 14.3998C16.358 14.5341 16.2607 14.689 16.1298 14.8644" stroke="#9BC0DC" stroke-width="2"/>
<path d="M16.1298 14.8644C15.7774 15.3248 15.2419 15.6768 14.6769 15.7789C14.5531 15.8014 14.4056 15.812 14.2344 15.8105C14.0357 15.8091 13.7512 15.809 13.3808 15.8103C13.3436 15.8105 13.3176 15.8116 13.3029 15.8137C13.2991 15.8143 13.2956 15.8162 13.293 15.8191C13.2905 15.8221 13.2891 15.8258 13.2891 15.8298V16.8404C13.2891 16.8433 13.2902 16.846 13.2921 16.8481C13.2941 16.8502 13.2967 16.8514 13.2996 16.8515C13.6271 16.8626 13.9463 16.8666 14.2571 16.8635C14.46 16.8613 14.6419 16.8527 14.8028 16.8376C15.1679 16.8033 15.5159 16.7035 15.8468 16.5383C16.2442 16.3397 16.6287 16.0387 16.9202 15.6742C17.1352 15.4053 17.305 15.1342 17.4234 14.8108C17.4336 14.7828 17.4538 14.7576 17.4645 14.7307C17.466 14.7269 17.4662 14.7226 17.4649 14.7187C17.4636 14.7148 17.461 14.7115 17.4576 14.7093C17.308 14.6165 17.216 14.4959 17.1816 14.3477C17.146 14.1942 17.1702 14.0444 17.2542 13.8984" stroke="#A7AED7" stroke-width="2"/>
<path d="M17.2542 13.8984C17.3751 13.6502 17.6539 13.6056 17.8849 13.7047C18.1393 13.814 18.2229 14.112 18.1511 14.3662C18.0909 14.5794 17.9418 14.7055 17.7036 14.7446" stroke="#9BC0DC" stroke-width="2"/>
<path d="M17.7036 14.7445C17.664 14.7511 17.6253 14.7505 17.5875 14.7428C17.5845 14.7422 17.5814 14.7427 17.5788 14.7442C17.5761 14.7458 17.5741 14.7482 17.573 14.7511C17.4565 15.0861 17.2987 15.4042 17.0766 15.6853C16.8735 15.9425 16.648 16.1638 16.4003 16.3492C15.8187 16.7847 15.1619 17.0005 14.4301 16.9967C14.3565 16.9964 14.2828 16.9958 14.209 16.995" stroke="#A7AED7" stroke-width="2"/>
<path d="M14.209 16.995L13.3027 16.9828C13.3007 16.9828 13.2988 16.9831 13.297 16.9839C13.2952 16.9846 13.2935 16.9857 13.2922 16.9872C13.2908 16.9886 13.2897 16.9902 13.2889 16.9921C13.2882 16.994 13.2878 16.9959 13.2878 16.998V17.7969C13.2878 17.8009 13.2893 17.8047 13.2921 17.8075C13.2948 17.8103 13.2986 17.8118 13.3025 17.8118H13.8665C13.873 17.8118 13.8794 17.8097 13.8846 17.8057C13.8899 17.8017 13.8937 17.796 13.8956 17.7896C13.9219 17.6976 13.9687 17.6226 14.0358 17.5645C14.1604 17.4567 14.3014 17.4159 14.459 17.4421" stroke="#C0AACD" stroke-width="2"/>
<path d="M14.459 17.4421C14.5765 17.4723 14.6684 17.5169 14.7346 17.5759C14.9684 17.7841 14.9699 18.137 14.7764 18.366C14.6692 18.4926 14.5171 18.5479 14.3203 18.5318" stroke="#A7AED7" stroke-width="2"/>
<path d="M14.3203 18.5318C14.1049 18.4864 13.9606 18.3616 13.8873 18.1575C13.8845 18.1499 13.8795 18.1433 13.8729 18.1386C13.8663 18.134 13.8585 18.1315 13.8505 18.1315H13.3016C13.2963 18.1315 13.2912 18.1337 13.2874 18.1375C13.2836 18.1414 13.2815 18.1467 13.2815 18.1522V18.8183C13.2815 18.8269 13.2848 18.8351 13.2908 18.8412C13.2967 18.8473 13.3048 18.8507 13.3132 18.8507L14.1666 18.8526" stroke="#C0AACD" stroke-width="2"/>
<path d="M14.1666 18.8527L14.7046 18.8193" stroke="#A7AED7" stroke-width="2"/>
<path d="M14.7046 18.8193C14.96 18.8022 15.2104 18.7578 15.4652 18.7072C16.6738 18.4666 17.7023 17.7602 18.4626 16.7852C18.6265 16.5748 18.7421 16.4176 18.871 16.1946" stroke="#A9B7DE" stroke-width="2"/>
<path d="M18.871 16.1946C19.2894 15.4862 19.5402 14.7193 19.6235 13.8939" stroke="#9BC0DC" stroke-width="2"/>
<path d="M19.6235 13.894C19.6734 13.4011 19.6634 12.9083 19.5933 12.4155" stroke="#9ECFE5" stroke-width="2"/>
<path d="M19.5932 12.4154C19.5173 11.8365 19.3283 11.2749 19.0817 10.7513C18.9041 10.3747 18.6636 9.9947 18.4157 9.69051C18.172 9.39159 17.8967 9.11965 17.59 8.8747C17.479 8.78605 17.2871 8.6519 17.1341 8.55449C16.5945 8.21128 16.0128 7.97993 15.3888 7.86044C15.3867 7.86004 15.3845 7.86021 15.3825 7.86095C15.3805 7.86169 15.3787 7.86298 15.3773 7.86467C15.3759 7.86636 15.375 7.8684 15.3746 7.87058C15.3743 7.87277 15.3744 7.87502 15.3752 7.87711C15.495 8.20095 15.3706 8.62071 14.997 8.68821C14.7373 8.735 14.4632 8.59102 14.413 8.31118C14.4116 8.30322 14.4075 8.29602 14.4014 8.29083C14.3953 8.28564 14.3876 8.28279 14.3797 8.28277L13.3237 8.28789" stroke="#99DBE5" stroke-width="2"/>
<path d="M19.5932 12.4155C19.3363 12.2624 19.1226 12.1137 18.9522 11.9695C18.609 11.679 18.3964 11.5019 18.091 11.3039C17.8175 11.1265 17.5478 10.9405 17.2617 10.7871" stroke="#40B1D2" stroke-width="2"/>
<path d="M17.2617 10.7871C17.0241 10.442 16.755 10.125 16.4545 9.83605C16.3877 9.77197 16.3084 9.70176 16.2164 9.62543C15.9448 9.39963 15.6669 9.16465 15.3313 8.99547C15.164 8.91116 15.0612 8.86067 15.023 8.84401C14.9664 8.81909 14.8809 8.79217 14.7663 8.76326C14.7033 8.74731 14.6375 8.71883 14.569 8.67782C14.5046 8.63937 14.4469 8.6096 14.3958 8.58852C14.2107 8.51191 14.0199 8.44882 13.8234 8.39926C13.7027 8.36892 13.5613 8.35803 13.4622 8.34329C13.4223 8.33731 13.3924 8.32264 13.3726 8.29929C13.3683 8.29421 13.3621 8.29107 13.3556 8.29053L13.3237 8.28796" stroke="#3DA2C9" stroke-width="2"/>
<path d="M17.2617 10.7871C17.3415 10.9123 17.4197 11.0378 17.4964 11.1635C17.8721 11.7789 18.0786 12.4449 18.116 13.1615C18.1164 13.1683 18.1193 13.1747 18.1242 13.1792C18.2792 13.3252 18.4311 13.438 18.5799 13.5178C18.8954 13.6871 19.2433 13.8125 19.6235 13.894" stroke="#4296C9" stroke-width="2"/>
<path d="M18.871 16.1945C18.5927 16.2588 18.3546 16.2804 18.0801 16.1802C17.9088 16.1179 17.7414 16.0431 17.5778 15.9559" stroke="#4C7FC2" stroke-width="2"/>
<path d="M17.5778 15.9559C17.7252 15.6445 17.8401 15.3198 17.9227 14.9818C17.9234 14.9786 17.9234 14.9753 17.9225 14.9721C17.9216 14.9689 17.9199 14.966 17.9176 14.9637L17.7035 14.7445" stroke="#4A76BB" stroke-width="2"/>
<path d="M17.2542 13.8984L17.209 13.8745" stroke="#4A76BB" stroke-width="2"/>
<path d="M17.2091 13.8745C17.2506 13.6042 17.2591 13.3326 17.2345 13.0598C17.1931 12.6007 17.0727 12.1331 16.8605 11.7362C16.6815 11.4011 16.4519 11.1139 16.1716 10.8745C15.9613 10.6949 15.7526 10.5543 15.5457 10.4528C15.1007 10.2347 14.6262 10.1437 14.1222 10.1796C14.1165 10.1799 14.1108 10.1785 14.1059 10.1756C14.101 10.1726 14.0971 10.1682 14.0947 10.1629C14.0225 10.0061 13.8277 9.93753 13.6952 10.0674C13.4725 10.2859 13.8172 10.6593 14.0359 10.4047C14.0613 10.3752 14.0699 10.3346 14.0951 10.3105C14.1003 10.3057 14.1069 10.3027 14.114 10.302C14.8851 10.2332 15.7367 10.5799 16.2671 11.1505C16.3636 11.2541 16.4184 11.3142 16.4314 11.3305C16.5585 11.4906 16.6736 11.6707 16.7769 11.8708C16.8322 11.9779 16.895 12.1351 16.9654 12.3424C17.0928 12.718 17.1371 13.1482 17.1088 13.5376C17.0865 13.8459 17.0531 14.1377 16.9513 14.4227C16.897 14.5749 16.8523 14.6895 16.8172 14.7664C16.8007 14.8028 16.7836 14.8343 16.7658 14.8608C16.7631 14.8648 16.7596 14.868 16.7555 14.8704C16.7514 14.8727 16.7468 14.874 16.7421 14.8742C16.6531 14.8792 16.5614 14.8772 16.499 14.9492C16.4267 15.0331 16.4068 15.1245 16.4394 15.2235C16.4518 15.2607 16.4711 15.2897 16.4795 15.3181C16.4808 15.3225 16.481 15.3272 16.4801 15.3317C16.4792 15.3362 16.4773 15.3404 16.4745 15.344L16.3527 15.4974" stroke="#9BC0DC" stroke-width="2"/>
<path d="M16.3527 15.4973C16.2606 15.2937 16.1863 15.0827 16.1298 14.8644" stroke="#4A76BB" stroke-width="2"/>
<path d="M17.5778 15.9559C17.5245 16.0514 17.4754 16.1552 17.4246 16.2437C17.2596 16.5309 17.0689 16.8044 16.8524 17.064C16.7303 17.2107 16.601 17.3475 16.4646 17.4745C16.2701 17.6557 16.1301 17.7813 16.0448 17.8514C15.802 18.0507 15.469 18.2907 15.0459 18.5713C15.0208 18.5879 14.9549 18.6206 14.8479 18.6693C14.7932 18.6941 14.7722 18.7116 14.7243 18.7419C14.7215 18.7437 14.7191 18.746 14.7173 18.7489C14.7155 18.7517 14.7143 18.7548 14.7138 18.7582L14.7046 18.8193" stroke="#586DBC" stroke-width="2"/>
<path d="M14.1666 18.8526C14.2075 18.7401 14.2587 18.6331 14.3203 18.5317" stroke="#7060AB" stroke-width="2"/>
<path d="M14.459 17.4421C14.3665 17.2991 14.2832 17.1501 14.209 16.995" stroke="#7060AB" stroke-width="2"/>
<path d="M17.2091 13.8745C17.1574 14.1373 17.0851 14.3938 16.992 14.6442C16.9583 14.735 16.9174 14.8192 16.8694 14.8967C16.8676 14.8997 16.8665 14.9031 16.8663 14.9067C16.8661 14.9102 16.8668 14.9138 16.8684 14.917C16.8766 14.933 16.9047 14.9548 16.9179 14.9791C16.9675 15.0711 16.9768 15.1577 16.9458 15.2389C16.8942 15.3739 16.7754 15.432 16.6379 15.3792C16.632 15.3769 16.6255 15.3766 16.6193 15.3782C16.6132 15.3799 16.6077 15.3834 16.6037 15.3884C16.491 15.5264 16.3938 15.651 16.2748 15.7571C15.731 16.2427 15.023 16.4678 14.3035 16.4373C14.2977 16.437 14.292 16.4384 14.2869 16.4413C14.2819 16.4442 14.2777 16.4485 14.2749 16.4537C14.2296 16.537 14.1427 16.6131 14.0417 16.6043C13.9359 16.5952 13.8593 16.514 13.8331 16.4153C13.8088 16.3234 13.8316 16.2418 13.9015 16.1705C14.0348 16.0344 14.2147 16.132 14.2772 16.2813C14.2811 16.2905 14.2875 16.2983 14.2956 16.3038C14.3036 16.3093 14.3131 16.3123 14.3228 16.3125C14.5646 16.3171 14.8055 16.294 15.0455 16.2431C15.5538 16.1352 15.9977 15.881 16.3527 15.4974" stroke="#A7AED7" stroke-width="2"/>
<path d="M14.8935 7.94228C14.8669 7.9419 14.8405 7.94703 14.8158 7.95737C14.7912 7.96772 14.7686 7.98307 14.7496 8.00256C14.7305 8.02205 14.7153 8.04529 14.7048 8.07095C14.6943 8.09662 14.6886 8.12421 14.6883 8.15215C14.6875 8.20857 14.7081 8.26299 14.7454 8.30342C14.7828 8.34386 14.834 8.367 14.8877 8.36776C14.9142 8.36814 14.9406 8.36301 14.9653 8.35267C14.99 8.34233 15.0125 8.32698 15.0316 8.30749C15.0506 8.288 15.0659 8.26476 15.0764 8.23909C15.0869 8.21343 15.0925 8.18584 15.0929 8.1579C15.0937 8.10147 15.0731 8.04706 15.0357 8.00662C14.9983 7.96619 14.9472 7.94304 14.8935 7.94228Z" stroke="#99DBE5" stroke-width="2"/>
<path d="M17.8679 14.1945C17.8679 14.1394 17.8464 14.0866 17.8082 14.0476C17.7699 14.0087 17.718 13.9868 17.6639 13.9868C17.6098 13.9868 17.5579 14.0087 17.5197 14.0476C17.4814 14.0866 17.4599 14.1394 17.4599 14.1945C17.4599 14.2495 17.4814 14.3023 17.5197 14.3413C17.5579 14.3802 17.6098 14.4021 17.6639 14.4021C17.718 14.4021 17.7699 14.3802 17.8082 14.3413C17.8464 14.3023 17.8679 14.2495 17.8679 14.1945Z" stroke="#A9B7DE" stroke-width="2"/>
<path d="M14.1833 17.9456C14.1735 18 14.186 18.0563 14.2181 18.1021C14.2502 18.1479 14.2992 18.1794 14.3544 18.1897C14.3817 18.1948 14.4097 18.1946 14.4369 18.189C14.464 18.1834 14.4896 18.1725 14.5124 18.1571C14.5352 18.1416 14.5546 18.1219 14.5695 18.0989C14.5845 18.076 14.5947 18.0503 14.5995 18.0233C14.6093 17.9689 14.5968 17.9126 14.5647 17.8668C14.5327 17.821 14.4836 17.7895 14.4284 17.7792C14.4011 17.7741 14.3731 17.7743 14.346 17.7799C14.3189 17.7855 14.2932 17.7963 14.2704 17.8118C14.2477 17.8273 14.2283 17.847 14.2133 17.87C14.1984 17.8929 14.1882 17.9186 14.1833 17.9456Z" stroke="#C0AACD" stroke-width="2"/>
<path d="M16.5624 15.1126C16.5593 15.1299 16.5597 15.1476 16.5636 15.1647C16.5675 15.1819 16.5747 15.1982 16.5849 15.2126C16.595 15.2271 16.608 15.2395 16.6229 15.249C16.6379 15.2586 16.6545 15.2651 16.672 15.2683C16.7072 15.2748 16.7434 15.2671 16.7727 15.247C16.802 15.227 16.8219 15.1961 16.828 15.1613C16.8311 15.144 16.8307 15.1263 16.8268 15.1091C16.823 15.092 16.8157 15.0757 16.8056 15.0612C16.7954 15.0468 16.7825 15.0344 16.7675 15.0248C16.7526 15.0153 16.7359 15.0087 16.7184 15.0055C16.6832 14.9991 16.647 15.0067 16.6177 15.0268C16.5884 15.0469 16.5685 15.0778 16.5624 15.1126Z" stroke="#A9B7DE" stroke-width="2"/>
<path d="M0.363932 22.8877C0.358265 22.8099 0.343153 22.7471 0.344412 22.6597C0.350709 22.1866 0.353438 21.4472 0.352598 20.4413C0.350639 18.1177 0.34854 15.7846 0.346301 13.4419C0.344342 11.316 0.342243 9.97559 0.340004 9.42075C0.339864 9.40737 0.338395 9.35781 0.335597 9.27207C0.333078 9.19873 0.338045 9.13166 0.350499 9.07085C0.382193 8.91683 0.433408 8.69381 0.502043 8.51416C0.52793 8.44594 0.553817 8.37844 0.579704 8.31165C0.654287 8.11854 0.746151 7.94971 0.855297 7.80516C0.887201 7.76286 0.901264 7.71394 0.936526 7.67827C0.983822 7.63056 1.03105 7.58378 1.07821 7.53792C1.12438 7.49328 1.16342 7.43282 1.21464 7.39202C1.2944 7.32815 1.35716 7.25744 1.45035 7.20211C1.47792 7.18574 1.50716 7.16217 1.53809 7.13141C1.54908 7.1205 1.56159 7.11122 1.57524 7.10385C1.80976 6.97653 2.03771 6.85114 2.25907 6.72767C2.27069 6.72126 2.29441 6.70737 2.33023 6.68601C2.46526 6.60555 2.56895 6.54211 2.64129 6.49568C2.68495 6.46762 2.73008 6.44306 2.77668 6.42198C2.84447 6.39143 2.89065 6.34273 2.9532 6.3156C3.01554 6.28868 3.0997 6.22545 3.18345 6.1823C3.29582 6.12434 3.38719 6.07236 3.45758 6.02636C3.51068 5.99154 3.57428 5.97317 3.62423 5.92425C3.63174 5.91689 3.64032 5.91084 3.64963 5.90631C3.76759 5.85005 3.88065 5.78697 3.98882 5.71704C4.06998 5.66478 4.16212 5.61265 4.26525 5.56067C4.37915 5.50328 4.513 5.42702 4.66678 5.33189C4.77131 5.26737 4.85485 5.23362 4.94699 5.17296C5.01444 5.12852 5.0716 5.09612 5.11847 5.07576C5.15458 5.06017 5.20873 5.00997 5.25554 4.98775C5.32018 4.95741 5.4068 4.90793 5.51539 4.83928C5.5582 4.81208 5.66133 4.75597 5.82477 4.67095C5.9293 4.61655 6.00948 4.56998 6.06531 4.53125C6.20069 4.43704 6.343 4.36868 6.47838 4.28559C6.66043 4.17365 6.77762 4.10358 6.82996 4.07539C7.11982 3.91923 7.47602 3.70625 7.66576 3.583C7.72579 3.54397 7.86019 3.46914 8.06897 3.35848C8.14957 3.31555 8.23353 3.25488 8.3156 3.22198C8.32922 3.21646 8.3419 3.20882 8.35317 3.19934C8.4176 3.14593 8.51584 3.10727 8.59098 3.06241C8.96725 2.8374 9.32547 2.63175 9.66564 2.44548C9.68271 2.43622 9.71028 2.41728 9.74834 2.38866C9.75963 2.38029 9.7719 2.3734 9.78486 2.36815C9.86189 2.33696 9.92528 2.28185 9.99665 2.24511C10.0922 2.19626 10.188 2.13972 10.284 2.07549C10.3562 2.02743 10.42 2.00564 10.4905 1.95159C10.4995 1.94477 10.509 1.93884 10.5191 1.93386C10.654 1.86736 10.7302 1.82834 10.7476 1.8168C10.9136 1.70857 11.0103 1.64669 11.0377 1.63117C11.2384 1.51724 11.4284 1.4058 11.6078 1.29685C11.6477 1.27264 11.6857 1.25242 11.7218 1.23619C11.7793 1.21034 11.8185 1.17189 11.8706 1.14882C11.938 1.11912 12.0043 1.06593 12.0694 1.03154C12.1579 0.984402 12.235 0.943459 12.3007 0.90871C12.3366 0.889485 12.3838 0.848684 12.4245 0.828603C12.4735 0.804393 12.5224 0.773276 12.5712 0.735252C12.581 0.72758 12.5914 0.720927 12.6023 0.715386C12.8115 0.609574 13.0074 0.526049 13.19 0.464812C13.2278 0.452208 13.2693 0.424011 13.3021 0.416748C13.7291 0.321047 14.157 0.310864 14.5856 0.3862C14.6069 0.389903 14.6736 0.406138 14.7858 0.434905C14.8704 0.456481 14.9441 0.506254 15.0285 0.529538C15.042 0.533364 15.0549 0.539116 15.0669 0.546627C15.1047 0.570553 15.165 0.59932 15.2478 0.632929C15.306 0.65657 15.3713 0.694309 15.4436 0.746147C15.4844 0.775484 15.5146 0.794353 15.5345 0.802756C15.6262 0.842275 15.7127 0.906574 15.7906 0.940967C15.8337 0.959907 15.8764 0.98369 15.9188 1.01232C15.9979 1.06558 16.0915 1.1187 16.1997 1.17167C16.2125 1.17793 16.2247 1.18536 16.2362 1.19389C16.2775 1.22451 16.3171 1.24851 16.355 1.26588C16.4746 1.32078 16.5796 1.40281 16.6978 1.46476C16.8741 1.55725 16.9889 1.63693 17.1644 1.74097C17.1975 1.76062 17.2278 1.77742 17.2552 1.79138C17.281 1.80462 17.311 1.822 17.3453 1.8435C17.5199 1.95259 17.6209 2.01418 17.6484 2.02828C17.7858 2.09892 17.9232 2.1744 18.0606 2.25472C18.3007 2.39507 18.4991 2.52025 18.7073 2.63453C18.9014 2.7412 19.1174 2.86481 19.3554 3.00537C19.5494 3.12001 19.6752 3.19321 19.7328 3.22497C19.9096 3.32238 20.036 3.39473 20.1121 3.44201C20.2307 3.51571 20.3409 3.558 20.4467 3.63597C20.4722 3.65463 20.5167 3.6824 20.5804 3.71928C20.7739 3.83122 20.9998 3.95989 21.2581 4.10529C21.4193 4.19608 21.5936 4.3172 21.7388 4.39389C21.8568 4.45627 21.9877 4.54834 22.1233 4.62289C22.2659 4.70129 22.4031 4.76601 22.528 4.8521C22.5757 4.88514 22.6237 4.91305 22.6718 4.93584C22.6914 4.9451 22.7397 4.97208 22.8166 5.0168C22.9602 5.10011 23.0773 5.17851 23.2339 5.26203C23.4094 5.35531 23.6078 5.46953 23.8291 5.60468C23.8983 5.64683 23.9481 5.67595 23.9786 5.69205C24.0553 5.73235 24.1055 5.76019 24.1293 5.77557C24.1825 5.81018 24.2254 5.8341 24.258 5.84735C24.3125 5.86956 24.3652 5.91186 24.4267 5.94732C24.6102 6.05313 24.7069 6.10825 24.7168 6.11266C24.7435 6.12462 24.8077 6.16122 24.9095 6.22246C25.0062 6.28071 25.0698 6.31823 25.1005 6.33504C25.2434 6.41365 25.3224 6.4583 25.3377 6.46898C25.3899 6.50508 25.4216 6.53328 25.4642 6.55314C25.5121 6.5755 25.5611 6.60512 25.6112 6.64201C25.6477 6.66914 25.688 6.68388 25.7291 6.70054C25.7365 6.70352 25.7437 6.70724 25.7505 6.71165C25.9425 6.83426 26.1133 6.9331 26.2629 7.00815C26.348 7.05073 26.4087 7.08605 26.4451 7.1141C26.5106 7.16473 26.6027 7.2145 26.6711 7.2788C26.8791 7.47426 27.0926 7.69151 27.2261 7.92735C27.2534 7.97548 27.2993 8.06413 27.3638 8.1933C27.4293 8.32446 27.4872 8.44794 27.5258 8.59683C27.5608 8.73141 27.5874 8.83494 27.6056 8.90743C27.632 9.0121 27.6291 9.09221 27.6452 9.19197C27.6483 9.21148 27.6499 9.24993 27.6501 9.30732C27.6505 10.2143 27.6503 10.7131 27.6494 10.8037C27.6373 12.0399 27.6478 13.2659 27.644 14.6416C27.6373 17.097 27.6354 19.7252 27.6383 22.526C27.6385 22.6605 27.6302 22.8038 27.6136 22.956C27.6066 23.0193 27.5964 23.0742 27.5831 23.1209C27.5655 23.1829 27.5567 23.2609 27.5369 23.3399C27.467 23.6202 27.3224 23.9444 27.1274 24.1798C27.0005 24.3332 26.8982 24.4516 26.8206 24.5349C26.7797 24.5789 26.6885 24.662 26.5469 24.7842C26.4926 24.831 26.4237 24.8777 26.3401 24.9241C26.0587 25.0803 25.8523 25.1992 25.7209 25.2806C25.521 25.4045 25.3808 25.4873 25.3003 25.5291C25.1473 25.6085 25.0675 25.6677 24.8992 25.7732C24.8526 25.8027 24.7852 25.8234 24.7372 25.8518C24.3262 26.0951 24.0975 26.2298 24.051 26.256C23.8518 26.3686 23.7416 26.4218 23.593 26.5185C23.538 26.5543 23.4426 26.6107 23.3067 26.6879C23.2015 26.7476 23.0816 26.8199 22.9472 26.9048C22.7939 27.0013 22.6237 27.0808 22.4598 27.1805C22.185 27.3479 22.0147 27.4498 21.9489 27.4862C21.3906 27.7965 20.9826 28.0338 20.725 28.198C20.6377 28.2538 20.5178 28.3055 20.432 28.3559C19.7654 28.7466 19.3747 28.974 19.2599 29.0379C18.9524 29.2094 18.7304 29.3414 18.5939 29.4338C18.5358 29.4733 18.4661 29.4932 18.4029 29.5329C18.2865 29.6064 18.1525 29.6868 18.001 29.7741C17.955 29.8006 17.9066 29.8287 17.856 29.8585C17.8548 29.8592 17.6687 29.967 17.2974 30.1821C17.2035 30.2363 17.1112 30.2895 17.0204 30.3417C16.7856 30.4762 16.6196 30.5734 16.5225 30.6332C16.4534 30.676 16.3667 30.7069 16.3076 30.7435C16.006 30.9305 15.6878 31.1169 15.353 31.3027C15.269 31.3493 15.2004 31.3783 15.0981 31.4288C14.9405 31.5065 14.7613 31.5849 14.5881 31.608C14.4622 31.6249 14.3518 31.6505 14.2189 31.6507C14.1379 31.6509 14.0386 31.6608 13.946 31.646C13.918 31.6415 13.8912 31.6392 13.8656 31.6394C13.5982 31.64 13.3327 31.611 13.0884 31.5048C12.8653 31.4078 12.6092 31.2878 12.3884 31.1545C12.2289 31.0581 12.0807 30.9861 11.9268 30.8932C11.5416 30.6605 11.1124 30.4091 10.6391 30.1389C10.599 30.1161 10.5529 30.0971 10.5142 30.0723C10.3879 29.992 10.2624 29.9057 10.1429 29.842C10.0076 29.77 9.87113 29.697 9.73323 29.607C9.64948 29.5523 9.56153 29.5115 9.44819 29.4423C9.19394 29.287 8.91254 29.1231 8.60399 28.9508C8.50324 28.8945 8.40837 28.8389 8.31937 28.784C8.17371 28.694 8.0612 28.6391 7.9382 28.5644C7.77218 28.4633 7.53227 28.3341 7.3759 28.2352C7.25626 28.1596 7.16341 28.1046 7.09737 28.0703C7.02488 28.0325 6.93393 27.979 6.8245 27.9098C6.6971 27.8291 6.50063 27.7336 6.35476 27.6469C6.15871 27.5302 5.95512 27.4136 5.76978 27.3034C5.26183 27.0015 4.85716 26.7636 4.55575 26.5899C4.47739 26.5447 4.39371 26.4992 4.30471 26.4532C4.08222 26.3387 3.90654 26.2284 3.65635 26.0834C3.60849 26.0556 3.51607 26.0002 3.37907 25.917C3.24621 25.8362 3.09194 25.7549 2.97524 25.6876C2.67103 25.5124 2.41887 25.3667 2.21877 25.2505C2.19653 25.2375 2.16294 25.2261 2.14321 25.214C1.94759 25.0915 1.78702 24.9994 1.6615 24.9375C1.58034 24.8977 1.51052 24.8541 1.45203 24.8068C1.24367 24.6379 1.08597 24.4824 0.978925 24.3403C0.775467 24.0701 0.612168 23.7662 0.48903 23.4286C0.425432 23.2542 0.376526 23.0543 0.363932 22.8877ZM12.5941 19.7688L12.5983 18.5895C12.6026 18.5832 12.6117 18.5802 12.6254 18.5805C12.7242 18.5829 12.816 18.5833 12.9008 18.5816C12.9099 18.5814 12.9187 18.5775 12.9251 18.5708C12.9316 18.5641 12.9352 18.5551 12.9352 18.5457V18.1535C12.9352 18.1482 12.9341 18.143 12.9318 18.1383C12.9296 18.1335 12.9264 18.1293 12.9224 18.126C12.9184 18.1227 12.9137 18.1203 12.9087 18.1191C12.9037 18.1179 12.8985 18.1178 12.8934 18.1189C12.7368 18.152 12.5395 18.1667 12.5162 17.9488C12.5082 17.8736 12.5685 17.8168 12.6287 17.7863C12.6522 17.7743 12.689 17.7695 12.7389 17.7719C12.8178 17.7755 12.8776 17.7788 12.9182 17.7818C12.9199 17.7819 12.9216 17.7817 12.9232 17.7811C12.9248 17.7806 12.9262 17.7797 12.9275 17.7785C12.9287 17.7774 12.9297 17.776 12.9304 17.7744C12.9311 17.7728 12.9314 17.7711 12.9314 17.7694V17.3428C12.9314 17.3326 12.9275 17.3229 12.9206 17.3156C12.9136 17.3083 12.9042 17.3041 12.8942 17.3039L12.613 17.2973C12.6119 17.2973 12.6108 17.297 12.6098 17.2964C12.5999 17.2916 12.5963 17.285 12.5989 17.2768L12.596 16.1922C12.5988 14.1053 12.5971 12.019 12.5909 9.93322C12.5888 9.18428 12.5966 8.54663 12.592 7.88249C12.592 7.87038 12.589 7.83656 12.583 7.78102C12.5825 7.77626 12.5803 7.77185 12.5768 7.76865C12.5733 7.76545 12.5688 7.76369 12.5641 7.76372H9.17302C9.17098 7.76372 9.16896 7.76413 9.16707 7.76492C9.16519 7.76571 9.16348 7.76688 9.16203 7.76835C9.16059 7.76981 9.15945 7.77156 9.15867 7.77347C9.15789 7.77539 9.15749 7.77745 9.15749 7.77952V23.8731C9.15749 23.8782 9.15947 23.8831 9.16302 23.8867C9.16656 23.8903 9.17137 23.8923 9.17638 23.8923C10.2848 23.8952 11.3866 23.8967 12.482 23.8968C12.502 23.8968 12.5332 23.8935 12.5756 23.887C12.5786 23.8865 12.5813 23.8851 12.5834 23.8828C12.5855 23.8806 12.5867 23.8777 12.587 23.8746C12.594 23.7822 12.5975 23.7243 12.5975 23.7009C12.5958 22.5303 12.596 21.4658 12.5981 20.5073C12.5986 20.2617 12.5973 20.0155 12.5941 19.7688ZM13.2658 7.95213C13.2658 7.95711 13.2677 7.96189 13.2712 7.96542C13.2746 7.96895 13.2793 7.97093 13.2842 7.97093H14.3847C14.3892 7.97092 14.3935 7.96927 14.3968 7.96628C14.4002 7.9633 14.4024 7.95918 14.403 7.95469L14.4246 7.78999C14.4249 7.78733 14.4247 7.78463 14.424 7.78206C14.4232 7.77949 14.422 7.77711 14.4202 7.77509C14.4185 7.77307 14.4164 7.77144 14.414 7.77033C14.4116 7.76921 14.409 7.76864 14.4063 7.76863H13.2842C13.2793 7.76863 13.2746 7.77061 13.2712 7.77414C13.2677 7.77766 13.2658 7.78244 13.2658 7.78743V7.95213ZM13.3237 8.28794C13.3107 8.28423 13.2985 8.28452 13.2872 8.28879C13.284 8.29003 13.2812 8.29211 13.279 8.29481C13.2769 8.29751 13.2755 8.30074 13.275 8.30417C13.2712 8.33009 13.2694 8.35159 13.2695 8.36868C13.2744 8.82298 13.2749 9.19503 13.2708 9.48484C13.2701 9.52742 13.2727 9.56886 13.2786 9.60916C13.279 9.61223 13.2806 9.61502 13.2829 9.61702C13.2853 9.61902 13.2883 9.6201 13.2914 9.62006C13.6203 9.6118 13.958 9.61116 14.3043 9.61814C14.836 9.6286 15.3945 9.7587 15.867 10.0197C16.2025 10.2052 16.5044 10.4403 16.7725 10.7251C16.8511 10.8086 16.9233 10.8939 16.9889 10.9812C17.0755 11.0964 17.1402 11.1875 17.183 11.2545C17.4026 11.5985 17.5561 11.9762 17.6435 12.3875C17.6722 12.5223 17.6999 12.6481 17.7264 12.7647C17.7271 12.7677 17.7285 12.7704 17.7306 12.7726C17.7326 12.7749 17.7353 12.7765 17.7382 12.7773C17.8447 12.809 17.9049 12.8764 17.9187 12.9796C17.9569 13.2648 17.559 13.3616 17.4742 13.0935C17.4348 12.9694 17.4683 12.8707 17.5745 12.7972C17.5793 12.7939 17.583 12.7892 17.5854 12.7838C17.5877 12.7785 17.5885 12.7725 17.5877 12.7667C17.5262 12.3247 17.3948 11.8793 17.1685 11.4943C16.8084 10.8817 16.2899 10.3675 15.6504 10.0697C15.2925 9.9031 14.9237 9.78988 14.5367 9.76083C14.1517 9.73221 13.8381 9.74545 13.2918 9.76083C13.2854 9.761 13.2794 9.76368 13.275 9.76831C13.2705 9.77294 13.2681 9.77915 13.2681 9.78561V10.7328C13.2681 10.737 13.2695 10.7411 13.2721 10.7444C13.2748 10.7477 13.2785 10.75 13.2826 10.751C13.3019 10.7554 13.3259 10.7575 13.3545 10.7574C13.6094 10.7558 13.9168 10.7562 14.2768 10.7584C14.4997 10.7597 14.7173 10.7941 14.9296 10.8616C15.4969 11.0422 15.9432 11.3875 16.2685 11.8977C16.6449 12.4875 16.7542 13.2165 16.589 13.898C16.5402 14.0998 16.4844 14.267 16.4215 14.3998C16.358 14.5341 16.2608 14.6889 16.1298 14.8644C15.7774 15.3247 15.2419 15.6768 14.6769 15.7789C14.553 15.8014 14.4056 15.8119 14.2344 15.8105C14.0357 15.8091 13.7512 15.809 13.3808 15.8103C13.3436 15.8104 13.3176 15.8116 13.3029 15.8137C13.2991 15.8142 13.2956 15.8161 13.293 15.8191C13.2905 15.822 13.2891 15.8258 13.2891 15.8297V16.8404C13.2891 16.8432 13.2901 16.846 13.2921 16.8481C13.2941 16.8501 13.2967 16.8513 13.2996 16.8515C13.6271 16.8626 13.9463 16.8666 14.2571 16.8634C14.46 16.8613 14.6419 16.8527 14.8028 16.8376C15.1679 16.8033 15.5159 16.7035 15.8468 16.5383C16.2442 16.3396 16.6287 16.0386 16.9202 15.6742C17.1352 15.4053 17.305 15.1342 17.4234 14.8108C17.4336 14.7828 17.4538 14.7576 17.4645 14.7307C17.466 14.7268 17.4662 14.7226 17.4649 14.7187C17.4636 14.7148 17.461 14.7114 17.4576 14.7093C17.308 14.6164 17.216 14.4959 17.1816 14.3476C17.146 14.1941 17.1702 14.0444 17.2542 13.8984C17.3751 13.6502 17.6538 13.6055 17.8849 13.7047C18.1393 13.814 18.2229 14.112 18.1511 14.3662C18.0909 14.5794 17.9417 14.7055 17.7036 14.7445C17.664 14.7511 17.6253 14.7505 17.5875 14.7428C17.5845 14.7422 17.5814 14.7428 17.5787 14.7443C17.5761 14.7458 17.5741 14.7482 17.573 14.7512C17.4565 15.0861 17.2987 15.4042 17.0766 15.6853C16.8734 15.9425 16.648 16.1638 16.4003 16.3492C15.8186 16.7847 15.1619 17.0006 14.43 16.9967C14.3564 16.9964 14.2828 16.9959 14.209 16.995L13.3027 16.9828C13.3008 16.9828 13.2988 16.9832 13.297 16.9839C13.2952 16.9847 13.2936 16.9858 13.2922 16.9872C13.2908 16.9886 13.2897 16.9903 13.2889 16.9921C13.2882 16.994 13.2878 16.996 13.2878 16.998V17.7969C13.2878 17.8009 13.2893 17.8047 13.2921 17.8075C13.2949 17.8103 13.2986 17.8119 13.3025 17.8119H13.8665C13.873 17.8119 13.8794 17.8097 13.8846 17.8057C13.8899 17.8017 13.8938 17.7961 13.8957 17.7897C13.922 17.6977 13.9687 17.6226 14.0359 17.5645C14.1604 17.4567 14.3015 17.4159 14.459 17.4421C14.5766 17.4723 14.6684 17.5169 14.7346 17.5758C14.9684 17.7841 14.9699 18.137 14.7764 18.366C14.6692 18.4926 14.5172 18.5479 14.3203 18.5318C14.1049 18.4864 13.9606 18.3616 13.8873 18.1575C13.8845 18.1499 13.8795 18.1433 13.8729 18.1386C13.8663 18.134 13.8585 18.1315 13.8505 18.1315H13.3017C13.2963 18.1315 13.2912 18.1336 13.2874 18.1375C13.2836 18.1414 13.2815 18.1467 13.2815 18.1522V18.8182C13.2815 18.8269 13.2848 18.8351 13.2908 18.8412C13.2967 18.8473 13.3048 18.8507 13.3132 18.8507L14.1666 18.8526L14.7046 18.8193C14.96 18.8022 15.2104 18.7578 15.4653 18.7072C16.6738 18.4666 17.7023 17.7602 18.4626 16.7852C18.6265 16.5748 18.7421 16.4176 18.871 16.1946C19.2894 15.4862 19.5402 14.7193 19.6235 13.8939C19.6734 13.401 19.6634 12.9082 19.5933 12.4155C19.5173 11.8366 19.3284 11.275 19.0817 10.7514C18.9042 10.3748 18.6636 9.99474 18.4157 9.69055C18.172 9.39163 17.8967 9.11969 17.59 8.87474C17.479 8.78609 17.2871 8.65194 17.1341 8.55453C16.5946 8.21132 16.0128 7.97997 15.3888 7.86049C15.3867 7.86008 15.3846 7.86025 15.3825 7.86099C15.3805 7.86174 15.3787 7.86302 15.3773 7.86471C15.376 7.8664 15.375 7.86844 15.3747 7.87062C15.3743 7.87281 15.3745 7.87506 15.3752 7.87715C15.4951 8.20099 15.3706 8.62075 14.997 8.68826C14.7373 8.73504 14.4632 8.59106 14.413 8.31122C14.4116 8.30326 14.4075 8.29606 14.4014 8.29087C14.3953 8.28568 14.3876 8.28283 14.3797 8.28281L13.3237 8.28794ZM14.8935 7.94232C14.8669 7.94194 14.8405 7.94707 14.8158 7.95742C14.7911 7.96776 14.7686 7.98311 14.7496 8.0026C14.7305 8.02209 14.7153 8.04533 14.7048 8.071C14.6942 8.09666 14.6886 8.12425 14.6882 8.15219C14.6875 8.20861 14.708 8.26303 14.7454 8.30346C14.7828 8.3439 14.834 8.36704 14.8876 8.36781C14.9142 8.36818 14.9406 8.36306 14.9653 8.35271C14.99 8.34237 15.0125 8.32702 15.0316 8.30753C15.0506 8.28804 15.0658 8.2648 15.0764 8.23913C15.0869 8.21347 15.0925 8.18588 15.0929 8.15794C15.0937 8.10152 15.0731 8.0471 15.0357 8.00667C14.9983 7.96623 14.9471 7.94309 14.8935 7.94232ZM17.8679 14.1945C17.8679 14.1394 17.8464 14.0866 17.8082 14.0477C17.7699 14.0087 17.718 13.9868 17.6639 13.9868C17.6098 13.9868 17.5579 14.0087 17.5196 14.0477C17.4814 14.0866 17.4599 14.1394 17.4599 14.1945C17.4599 14.2495 17.4814 14.3024 17.5196 14.3413C17.5579 14.3802 17.6098 14.4021 17.6639 14.4021C17.718 14.4021 17.7699 14.3802 17.8082 14.3413C17.8464 14.3024 17.8679 14.2495 17.8679 14.1945ZM14.1833 17.9456C14.1735 18.0001 14.186 18.0564 14.2181 18.1022C14.2502 18.1479 14.2992 18.1795 14.3544 18.1898C14.3817 18.1949 14.4098 18.1946 14.4369 18.189C14.464 18.1834 14.4896 18.1726 14.5124 18.1571C14.5352 18.1417 14.5546 18.1219 14.5695 18.099C14.5845 18.076 14.5947 18.0503 14.5995 18.0234C14.6093 17.9689 14.5968 17.9126 14.5648 17.8668C14.5327 17.821 14.4836 17.7895 14.4284 17.7792C14.4011 17.7741 14.3731 17.7744 14.346 17.78C14.3189 17.7856 14.2932 17.7964 14.2705 17.8119C14.2477 17.8273 14.2283 17.8471 14.2133 17.87C14.1984 17.893 14.1882 17.9187 14.1833 17.9456Z" fill="#F7F8F8"/>
<path d="M12.596 16.1923C12.1515 16.4499 11.6794 16.6689 11.3872 17.1224C10.9496 17.8021 10.9872 18.7305 11.6591 19.2428C11.7828 19.3371 11.8867 19.4059 11.9708 19.4493C12.1774 19.556 12.3852 19.6625 12.5941 19.7689C12.5974 20.0156 12.5987 20.2617 12.5981 20.5074C12.596 21.4658 12.5958 22.5304 12.5975 23.701C12.5975 23.7243 12.594 23.7822 12.587 23.8747C12.5868 23.8778 12.5855 23.8807 12.5834 23.8829C12.5814 23.8852 12.5786 23.8866 12.5757 23.8871C12.5333 23.8936 12.5021 23.8969 12.4821 23.8969C11.3867 23.8967 10.2848 23.8952 9.17642 23.8924C9.17141 23.8924 9.16661 23.8904 9.16306 23.8868C9.15952 23.8832 9.15753 23.8783 9.15753 23.8732V7.7796C9.15753 7.77753 9.15793 7.77547 9.15871 7.77355C9.15949 7.77163 9.16064 7.76989 9.16208 7.76842C9.16352 7.76696 9.16524 7.76579 9.16712 7.765C9.169 7.7642 9.17102 7.76379 9.17306 7.76379H12.5641C12.5688 7.76377 12.5734 7.76553 12.5769 7.76873C12.5804 7.77193 12.5825 7.77634 12.583 7.7811C12.589 7.83664 12.592 7.87046 12.592 7.88257C12.5967 8.5467 12.5889 9.18435 12.591 9.9333C12.5972 12.0191 12.5988 14.1054 12.596 16.1923Z" fill="#0B3A67"/>
<path d="M13.2658 7.95217V7.78747C13.2658 7.78249 13.2678 7.77771 13.2712 7.77418C13.2747 7.77066 13.2794 7.76868 13.2843 7.76868H14.4064C14.409 7.76868 14.4116 7.76926 14.414 7.77038C14.4164 7.77149 14.4185 7.77311 14.4203 7.77514C14.422 7.77716 14.4233 7.77954 14.424 7.78211C14.4248 7.78468 14.425 7.78738 14.4246 7.79004L14.403 7.95474C14.4024 7.95923 14.4002 7.96335 14.3969 7.96633C14.3935 7.96932 14.3892 7.97096 14.3848 7.97097H13.2843C13.2794 7.97097 13.2747 7.96899 13.2712 7.96547C13.2678 7.96194 13.2658 7.95716 13.2658 7.95217Z" fill="#3BBDD2"/>
<path d="M19.5933 12.4155C19.3364 12.2625 19.1227 12.1138 18.9523 11.9695C18.6091 11.679 18.3965 11.5019 18.0911 11.3039C17.8176 11.1266 17.5479 10.9405 17.2618 10.7871C17.0242 10.4421 16.7551 10.1251 16.4545 9.83611C16.3878 9.77202 16.3084 9.70181 16.2165 9.62548C15.9449 9.39968 15.667 9.16471 15.3314 8.99552C15.164 8.91121 15.0612 8.86073 15.023 8.84406C14.9665 8.81914 14.8809 8.79223 14.7663 8.76332C14.7034 8.74737 14.6376 8.71888 14.569 8.67787C14.5047 8.63942 14.4469 8.60965 14.3959 8.58858C14.2107 8.51196 14.02 8.44887 13.8235 8.39931C13.7028 8.36898 13.5613 8.35808 13.4623 8.34334C13.4224 8.33736 13.3925 8.32269 13.3726 8.29934C13.3683 8.29427 13.3622 8.29112 13.3556 8.29058L13.3237 8.28802L14.3797 8.28289C14.3877 8.28291 14.3954 8.28576 14.4014 8.29095C14.4075 8.29614 14.4117 8.30334 14.4131 8.3113C14.4632 8.59114 14.7374 8.73512 14.997 8.68834C15.3706 8.62083 15.4951 8.20107 15.3752 7.87723C15.3745 7.87514 15.3743 7.87289 15.3747 7.87071C15.3751 7.86852 15.376 7.86648 15.3774 7.86479C15.3788 7.8631 15.3806 7.86182 15.3826 7.86108C15.3846 7.86033 15.3868 7.86016 15.3889 7.86057C16.0128 7.98005 16.5946 8.2114 17.1342 8.55461C17.2872 8.65202 17.479 8.78617 17.5901 8.87483C17.8968 9.11977 18.172 9.39171 18.4158 9.69063C18.6637 9.99483 18.9042 10.3749 19.0818 10.7515C19.3284 11.275 19.5173 11.8366 19.5933 12.4155Z" fill="#3BBDD2"/>
<path d="M15.0929 8.158C15.0945 8.0405 15.0053 7.94397 14.8935 7.94238C14.7818 7.94079 14.6899 8.03475 14.6883 8.15225C14.6867 8.26974 14.7759 8.36628 14.8877 8.36787C14.9994 8.36945 15.0913 8.27549 15.0929 8.158Z" fill="#3BBDD2"/>
<path d="M13.3237 8.28798L13.3556 8.29054C13.3622 8.29108 13.3683 8.29423 13.3726 8.2993C13.3925 8.32266 13.4223 8.33732 13.4622 8.34331C13.5613 8.35805 13.7028 8.36894 13.8234 8.39927C14.0199 8.44883 14.2107 8.51192 14.3958 8.58854C14.4469 8.60962 14.5046 8.63938 14.569 8.67783C14.6376 8.71885 14.7033 8.74733 14.7663 8.76328C14.8809 8.79219 14.9665 8.81911 15.023 8.84403C15.0612 8.86069 15.164 8.91117 15.3313 8.99548C15.667 9.16467 15.9449 9.39965 16.2165 9.62544C16.3084 9.70178 16.3877 9.77198 16.4545 9.83607C16.7551 10.125 17.0241 10.442 17.2617 10.7871C17.3415 10.9123 17.4197 11.0377 17.4964 11.1635C17.8721 11.7789 18.0787 12.4448 18.116 13.1615C18.1164 13.1683 18.1193 13.1747 18.1242 13.1792C18.2792 13.3252 18.4311 13.438 18.5799 13.5178C18.8954 13.6871 19.2433 13.8125 19.6235 13.894C19.5402 14.7194 19.2894 15.4863 18.871 16.1946C18.5927 16.2589 18.3547 16.2805 18.0801 16.1803C17.9088 16.1179 17.7414 16.0432 17.5778 15.956C17.7252 15.6446 17.8401 15.3199 17.9227 14.9819C17.9235 14.9787 17.9234 14.9753 17.9225 14.9722C17.9216 14.969 17.92 14.9661 17.9177 14.9638L17.7036 14.7446C17.9417 14.7056 18.0909 14.5795 18.1511 14.3663C18.2228 14.1121 18.1393 13.8141 17.8849 13.7047C17.6538 13.6056 17.3751 13.6502 17.2542 13.8984L17.2091 13.8745C17.2506 13.6042 17.2591 13.3326 17.2345 13.0598C17.1931 12.6007 17.0726 12.1331 16.8604 11.7362C16.6815 11.4011 16.4518 11.1139 16.1715 10.8745C15.9612 10.6949 15.7526 10.5543 15.5456 10.4528C15.1007 10.2348 14.6262 10.1437 14.1221 10.1796C14.1164 10.1799 14.1108 10.1785 14.1058 10.1756C14.1009 10.1726 14.097 10.1682 14.0946 10.1629C14.0224 10.0061 13.8276 9.93754 13.6952 10.0674C13.4725 10.2859 13.8172 10.6594 14.0359 10.4047C14.0613 10.3752 14.0699 10.3347 14.0951 10.3105C14.1002 10.3057 14.1069 10.3027 14.1139 10.302C14.8851 10.2332 15.7366 10.5799 16.267 11.1505C16.3636 11.2541 16.4184 11.3142 16.4314 11.3305C16.5585 11.4906 16.6736 11.6707 16.7769 11.8708C16.8322 11.9779 16.895 12.1351 16.9654 12.3425C17.0928 12.718 17.1371 13.1482 17.1087 13.5376C17.0865 13.8459 17.0531 14.1377 16.9513 14.4227C16.897 14.5749 16.8523 14.6895 16.8172 14.7664C16.8007 14.8028 16.7835 14.8343 16.7658 14.8608C16.7631 14.8648 16.7596 14.8681 16.7554 14.8704C16.7513 14.8727 16.7467 14.874 16.742 14.8743C16.653 14.8792 16.5613 14.8772 16.499 14.9492C16.4266 15.0331 16.4068 15.1245 16.4394 15.2235C16.4518 15.2607 16.4711 15.2897 16.4795 15.3182C16.4808 15.3226 16.481 15.3272 16.4801 15.3317C16.4792 15.3362 16.4773 15.3404 16.4744 15.344L16.3527 15.4974C16.2606 15.2937 16.1863 15.0827 16.1298 14.8644C16.2607 14.689 16.358 14.5341 16.4215 14.3998C16.4844 14.2671 16.5402 14.0998 16.589 13.898C16.7542 13.2166 16.6449 12.4875 16.2685 11.8977C15.9432 11.3876 15.4969 11.0422 14.9296 10.8617C14.7173 10.7941 14.4997 10.7598 14.2768 10.7585C13.9168 10.7562 13.6094 10.7558 13.3545 10.7574C13.3259 10.7575 13.3019 10.7554 13.2825 10.751C13.2784 10.7501 13.2748 10.7478 13.2721 10.7445C13.2695 10.7412 13.2681 10.7371 13.2681 10.7328V9.78566C13.2681 9.77919 13.2705 9.77299 13.275 9.76836C13.2794 9.76373 13.2854 9.76104 13.2918 9.76088C13.8381 9.7455 14.1517 9.73225 14.5367 9.76088C14.9237 9.78993 15.2925 9.90315 15.6504 10.0698C16.2899 10.3676 16.8084 10.8817 17.1685 11.4944C17.3948 11.8793 17.5262 12.3247 17.5877 12.7667C17.5885 12.7725 17.5877 12.7785 17.5854 12.7839C17.583 12.7893 17.5793 12.7939 17.5745 12.7972C17.4683 12.8707 17.4348 12.9695 17.4742 13.0935C17.559 13.3616 17.9569 13.2649 17.9187 12.9797C17.9049 12.8764 17.8447 12.809 17.7382 12.7774C17.7353 12.7765 17.7326 12.7749 17.7306 12.7727C17.7285 12.7705 17.7271 12.7677 17.7264 12.7648C17.6999 12.6481 17.6722 12.5224 17.6435 12.3875C17.5561 11.9762 17.4026 11.5986 17.183 11.2545C17.1402 11.1876 17.0755 11.0965 16.9889 10.9813C16.9232 10.894 16.8511 10.8086 16.7725 10.7251C16.5044 10.4403 16.2025 10.2052 15.867 10.0198C15.3945 9.75874 14.836 9.62865 14.3043 9.61818C13.958 9.6112 13.6203 9.61184 13.2914 9.6201C13.2883 9.62014 13.2853 9.61906 13.2829 9.61706C13.2806 9.61506 13.279 9.61227 13.2786 9.60921C13.2727 9.5689 13.2701 9.52746 13.2708 9.48488C13.2749 9.19507 13.2744 8.82302 13.2695 8.36873C13.2694 8.35164 13.2712 8.33013 13.275 8.30421C13.2755 8.30078 13.2769 8.29756 13.279 8.29485C13.2812 8.29215 13.284 8.29008 13.2872 8.28883C13.2985 8.28456 13.3107 8.28428 13.3237 8.28798Z" fill="#3E87C0"/>
<path d="M17.2091 13.8745C17.1575 14.1373 17.0851 14.3938 16.9921 14.6442C16.9583 14.735 16.9175 14.8192 16.8695 14.8967C16.8676 14.8997 16.8665 14.9031 16.8664 14.9067C16.8662 14.9102 16.8669 14.9138 16.8684 14.917C16.8766 14.933 16.9047 14.9548 16.918 14.9791C16.9675 15.0711 16.9768 15.1577 16.9459 15.2389C16.8942 15.3739 16.7754 15.432 16.638 15.3792C16.632 15.3769 16.6255 15.3766 16.6194 15.3782C16.6132 15.3799 16.6078 15.3834 16.6037 15.3884C16.491 15.5264 16.3939 15.651 16.2748 15.7571C15.731 16.2427 15.023 16.4678 14.3035 16.4373C14.2977 16.437 14.292 16.4384 14.2869 16.4413C14.2819 16.4442 14.2777 16.4485 14.275 16.4537C14.2296 16.537 14.1427 16.6131 14.0418 16.6043C13.936 16.5952 13.8594 16.514 13.8331 16.4153C13.8088 16.3234 13.8316 16.2418 13.9016 16.1705C14.0348 16.0344 14.2147 16.132 14.2773 16.2813C14.2812 16.2905 14.2875 16.2983 14.2956 16.3038C14.3037 16.3093 14.3131 16.3123 14.3228 16.3125C14.5646 16.3171 14.8055 16.294 15.0455 16.2431C15.5539 16.1352 15.9978 15.881 16.3527 15.4974L16.4745 15.344C16.4773 15.3404 16.4792 15.3362 16.4801 15.3317C16.481 15.3272 16.4808 15.3225 16.4795 15.3181C16.4711 15.2897 16.4518 15.2607 16.4394 15.2235C16.4068 15.1245 16.4267 15.0331 16.499 14.9492C16.5614 14.8772 16.6531 14.8792 16.7421 14.8742C16.7468 14.874 16.7514 14.8727 16.7555 14.8704C16.7596 14.868 16.7631 14.8648 16.7658 14.8608C16.7836 14.8343 16.8007 14.8028 16.8172 14.7664C16.8523 14.6895 16.897 14.5749 16.9513 14.4227C17.0531 14.1377 17.0865 13.8459 17.1088 13.5376C17.1371 13.1482 17.0928 12.718 16.9654 12.3424C16.895 12.1351 16.8322 11.9779 16.7769 11.8708C16.6736 11.6707 16.5585 11.4906 16.4314 11.3305C16.4184 11.3142 16.3636 11.2541 16.2671 11.1505C15.7367 10.5799 14.8851 10.2332 14.114 10.302C14.1069 10.3027 14.1003 10.3057 14.0951 10.3105C14.0699 10.3346 14.0613 10.3752 14.0359 10.4047C13.8172 10.6593 13.4725 10.2859 13.6952 10.0674C13.8277 9.93753 14.0225 10.0061 14.0947 10.1629C14.0971 10.1682 14.101 10.1726 14.1059 10.1756C14.1108 10.1785 14.1165 10.1799 14.1222 10.1796C14.6262 10.1437 15.1007 10.2347 15.5457 10.4528C15.7526 10.5543 15.9613 10.6949 16.1716 10.8745C16.4519 11.1139 16.6815 11.4011 16.8605 11.7362C17.0727 12.1331 17.1931 12.6007 17.2345 13.0598C17.2591 13.3326 17.2506 13.6042 17.2091 13.8745ZM16.5624 15.1127C16.5594 15.1299 16.5598 15.1476 16.5637 15.1648C16.5675 15.182 16.5747 15.1982 16.5849 15.2127C16.5951 15.2272 16.608 15.2395 16.623 15.2491C16.6379 15.2586 16.6546 15.2652 16.672 15.2684C16.7073 15.2748 16.7435 15.2672 16.7728 15.2471C16.802 15.227 16.8219 15.1962 16.8281 15.1613C16.8311 15.1441 16.8307 15.1263 16.8269 15.1092C16.823 15.092 16.8158 15.0757 16.8056 15.0613C16.7954 15.0468 16.7825 15.0345 16.7676 15.0249C16.7526 15.0153 16.7359 15.0088 16.7185 15.0056C16.6833 14.9991 16.647 15.0068 16.6178 15.0269C16.5885 15.047 16.5686 15.0778 16.5624 15.1127Z" fill="#F7F8F8"/>
<path d="M19.5933 12.4155C19.6634 12.9083 19.6735 13.4011 19.6235 13.894C19.2433 13.8125 18.8955 13.6871 18.5799 13.5178C18.4312 13.438 18.2793 13.3252 18.1242 13.1792C18.1194 13.1747 18.1164 13.1683 18.1161 13.1615C18.0787 12.4449 17.8722 11.7789 17.4964 11.1635C17.4198 11.0378 17.3415 10.9123 17.2618 10.7871C17.5479 10.9405 17.8176 11.1265 18.0911 11.3039C18.3965 11.5019 18.6091 11.679 18.9523 11.9695C19.1227 12.1137 19.3364 12.2624 19.5933 12.4155Z" fill="#45A5D1"/>
<path d="M17.2542 13.8984C17.1702 14.0444 17.146 14.1942 17.1816 14.3477C17.216 14.4959 17.308 14.6165 17.4576 14.7093C17.461 14.7115 17.4636 14.7148 17.4649 14.7187C17.4662 14.7226 17.466 14.7269 17.4645 14.7307C17.4538 14.7576 17.4336 14.7828 17.4234 14.8108C17.305 15.1342 17.1352 15.4053 16.9202 15.6742C16.6287 16.0387 16.2442 16.3397 15.8468 16.5383C15.5159 16.7035 15.1679 16.8033 14.8028 16.8376C14.6419 16.8527 14.46 16.8613 14.2571 16.8635C13.9463 16.8666 13.6271 16.8626 13.2996 16.8515C13.2967 16.8514 13.2941 16.8502 13.2921 16.8481C13.2902 16.846 13.2891 16.8433 13.2891 16.8404V15.8298C13.2891 15.8258 13.2905 15.8221 13.293 15.8191C13.2956 15.8162 13.2991 15.8143 13.3029 15.8137C13.3176 15.8116 13.3436 15.8105 13.3808 15.8103C13.7512 15.809 14.0357 15.8091 14.2344 15.8105C14.4056 15.812 14.5531 15.8014 14.6769 15.7789C15.2419 15.6768 15.7774 15.3248 16.1298 14.8644C16.1863 15.0827 16.2606 15.2937 16.3527 15.4974C15.9978 15.881 15.5538 16.1352 15.0455 16.2431C14.8055 16.294 14.5646 16.3171 14.3228 16.3125C14.3131 16.3123 14.3037 16.3093 14.2956 16.3038C14.2875 16.2983 14.2811 16.2905 14.2772 16.2813C14.2147 16.132 14.0348 16.0344 13.9015 16.1705C13.8316 16.2418 13.8088 16.3234 13.8331 16.4153C13.8593 16.514 13.936 16.5952 14.0417 16.6043C14.1427 16.6131 14.2296 16.537 14.2749 16.4537C14.2777 16.4485 14.2819 16.4442 14.2869 16.4413C14.292 16.4384 14.2977 16.437 14.3035 16.4373C15.023 16.4678 15.731 16.2427 16.2748 15.7571C16.3938 15.651 16.491 15.5264 16.6037 15.3884C16.6077 15.3834 16.6132 15.3799 16.6193 15.3782C16.6255 15.3766 16.632 15.3769 16.6379 15.3792C16.7754 15.432 16.8942 15.3739 16.9459 15.2389C16.9768 15.1577 16.9675 15.0711 16.9179 14.9791C16.9047 14.9548 16.8766 14.933 16.8684 14.917C16.8669 14.9138 16.8661 14.9102 16.8663 14.9067C16.8665 14.9031 16.8676 14.8997 16.8695 14.8967C16.9174 14.8192 16.9583 14.735 16.992 14.6442C17.0851 14.3938 17.1574 14.1373 17.2091 13.8745L17.2542 13.8984Z" fill="#5664B5"/>
<path d="M17.6639 14.4021C17.7766 14.4021 17.8679 14.3091 17.8679 14.1945C17.8679 14.0798 17.7766 13.9868 17.6639 13.9868C17.5512 13.9868 17.4599 14.0798 17.4599 14.1945C17.4599 14.3091 17.5512 14.4021 17.6639 14.4021Z" fill="#5A76C3"/>
<path d="M17.7036 14.7446L17.9177 14.9638C17.92 14.9661 17.9216 14.969 17.9225 14.9722C17.9234 14.9754 17.9235 14.9787 17.9227 14.982C17.8401 15.3199 17.7252 15.6446 17.5778 15.9561C17.5245 16.0515 17.4754 16.1554 17.4246 16.2438C17.2596 16.531 17.0689 16.8045 16.8524 17.0641C16.7303 17.2108 16.601 17.3476 16.4646 17.4747C16.2701 17.6558 16.1301 17.7814 16.0448 17.8515C15.802 18.0509 15.469 18.2908 15.0459 18.5714C15.0208 18.588 14.9549 18.6207 14.8479 18.6694C14.7932 18.6942 14.7722 18.7117 14.7243 18.7421C14.7215 18.7438 14.7191 18.7462 14.7173 18.749C14.7155 18.7518 14.7143 18.755 14.7138 18.7583L14.7046 18.8194L14.1666 18.8527C14.2075 18.7402 14.2587 18.6333 14.3203 18.5319C14.5172 18.548 14.6692 18.4927 14.7764 18.3661C14.9699 18.1371 14.9684 17.7842 14.7346 17.5759C14.6684 17.517 14.5766 17.4724 14.459 17.4422C14.3665 17.2992 14.2832 17.1502 14.209 16.9951C14.2828 16.9959 14.3564 16.9965 14.43 16.9968C15.1619 17.0006 15.8186 16.7848 16.4003 16.3493C16.648 16.1639 16.8734 15.9426 17.0766 15.6854C17.2987 15.4043 17.4565 15.0862 17.573 14.7512C17.5741 14.7483 17.5761 14.7459 17.5787 14.7444C17.5814 14.7428 17.5845 14.7423 17.5875 14.7429C17.6253 14.7506 17.664 14.7512 17.7036 14.7446Z" fill="#5664B5"/>
<path d="M16.7185 15.0056C16.6451 14.9922 16.5753 15.0401 16.5624 15.1127C16.5496 15.1852 16.5987 15.255 16.672 15.2684C16.7454 15.2818 16.8153 15.2339 16.8281 15.1613C16.8409 15.0888 16.7919 15.019 16.7185 15.0056Z" fill="#5A76C3"/>
<path d="M17.5778 15.9561C17.7414 16.0432 17.9088 16.118 18.0801 16.1804C18.3547 16.2805 18.5927 16.259 18.871 16.1947C18.7421 16.4177 18.6265 16.5749 18.4626 16.7853C17.7023 17.7603 16.6738 18.4667 15.4652 18.7072C15.2104 18.7579 14.96 18.8023 14.7046 18.8194L14.7138 18.7583C14.7143 18.755 14.7155 18.7518 14.7173 18.749C14.7191 18.7462 14.7215 18.7438 14.7243 18.7421C14.7722 18.7117 14.7932 18.6942 14.8479 18.6694C14.9549 18.6207 15.0208 18.588 15.0459 18.5714C15.469 18.2908 15.802 18.0509 16.0448 17.8515C16.1301 17.7814 16.2701 17.6558 16.4646 17.4747C16.601 17.3476 16.7303 17.2108 16.8524 17.0641C17.0689 16.8045 17.2596 16.531 17.4246 16.2438C17.4754 16.1554 17.5245 16.0515 17.5778 15.9561Z" fill="#5A76C3"/>
<path d="M12.596 16.1923L12.599 17.2768C12.5939 17.2859 12.5889 17.2907 12.5839 17.2911C12.3255 17.3173 12.1447 17.4505 12.0415 17.6906C11.9886 17.8133 11.9753 17.9366 12.0016 18.0604C12.0692 18.3788 12.2681 18.5552 12.5983 18.5895L12.5941 19.7689C12.3852 19.6625 12.1774 19.556 11.9707 19.4493C11.8866 19.4059 11.7827 19.337 11.6591 19.2427C10.9872 18.7305 10.9496 17.8021 11.3872 17.1224C11.6794 16.6688 12.1515 16.4499 12.596 16.1923Z" fill="#5E5972"/>
<path d="M14.2091 16.9951C14.2832 17.1502 14.3666 17.2992 14.4591 17.4422C14.3015 17.416 14.1604 17.4568 14.0359 17.5646C13.9687 17.6227 13.922 17.6977 13.8957 17.7897C13.8938 17.7962 13.8899 17.8018 13.8847 17.8058C13.8794 17.8098 13.8731 17.812 13.8665 17.812H13.3025C13.2986 17.812 13.2949 17.8104 13.2921 17.8076C13.2894 17.8048 13.2878 17.801 13.2878 17.797V16.9981C13.2878 16.9961 13.2882 16.9941 13.289 16.9922C13.2897 16.9904 13.2908 16.9887 13.2922 16.9873C13.2936 16.9859 13.2953 16.9848 13.2971 16.984C13.2989 16.9833 13.3008 16.9829 13.3027 16.9829L14.2091 16.9951Z" fill="#895BA1"/>
<path d="M12.5989 17.2769C12.5963 17.2851 12.5999 17.2917 12.6098 17.2965C12.6108 17.2971 12.6119 17.2974 12.613 17.2974L12.8943 17.304C12.9042 17.3042 12.9136 17.3084 12.9206 17.3157C12.9275 17.3229 12.9314 17.3327 12.9314 17.3429V17.7695C12.9314 17.7712 12.9311 17.7729 12.9304 17.7745C12.9297 17.776 12.9287 17.7775 12.9275 17.7786C12.9262 17.7798 12.9248 17.7807 12.9232 17.7812C12.9216 17.7818 12.9199 17.782 12.9182 17.7818C12.8776 17.7789 12.8179 17.7756 12.7389 17.772C12.689 17.7696 12.6522 17.7744 12.6287 17.7863C12.5685 17.8169 12.5083 17.8737 12.5162 17.9489C12.5395 18.1668 12.7368 18.152 12.8934 18.1189C12.8985 18.1179 12.9037 18.1179 12.9087 18.1192C12.9137 18.1204 12.9184 18.1228 12.9224 18.1261C12.9264 18.1294 12.9296 18.1336 12.9319 18.1383C12.9341 18.1431 12.9352 18.1483 12.9352 18.1535V18.5457C12.9352 18.5552 12.9316 18.5642 12.9251 18.5709C12.9187 18.5776 12.9099 18.5815 12.9008 18.5816C12.816 18.5833 12.7242 18.583 12.6254 18.5806C12.6117 18.5803 12.6026 18.5833 12.5983 18.5895C12.2681 18.5552 12.0692 18.3788 12.0016 18.0604C11.9753 17.9367 11.9886 17.8134 12.0415 17.6906C12.1447 17.4505 12.3255 17.3174 12.5838 17.2912C12.5889 17.2907 12.5939 17.286 12.5989 17.2769Z" fill="#F3A071"/>
<path d="M14.3203 18.5318C14.2588 18.6332 14.2075 18.7401 14.1667 18.8526L13.3132 18.8507C13.3048 18.8507 13.2968 18.8473 13.2908 18.8412C13.2849 18.8351 13.2816 18.8269 13.2816 18.8183V18.1522C13.2816 18.1467 13.2837 18.1414 13.2875 18.1375C13.2912 18.1337 13.2964 18.1315 13.3017 18.1315H13.8506C13.8586 18.1315 13.8664 18.134 13.873 18.1386C13.8795 18.1433 13.8845 18.1499 13.8873 18.1575C13.9606 18.3616 14.105 18.4864 14.3203 18.5318Z" fill="#895BA1"/>
</g>
<defs>
<clipPath id="clip0_8_61">
<rect width="28" height="32" fill="white"/>
</clipPath>
</defs>
</svg>
