<?xml version="1.0" encoding="UTF-8" standalone="no"?>
<!DOCTYPE svg PUBLIC "-//W3C//DTD SVG 1.1//EN" "http://www.w3.org/Graphics/SVG/1.1/DTD/svg11.dtd">
<svg xmlns="http://www.w3.org/2000/svg" version="1.1" viewBox="0.00 0.00 1334.00 1498.00">
<g stroke-width="2.00" fill="none" stroke-linecap="butt">
<path stroke="#7f869a" vector-effect="non-scaling-stroke" d="
  M 17.34 1071.43
  C 17.94 1079.23 20.27 1088.59 23.30 1096.75
  Q 32.10 1120.46 46.64 1139.43
  Q 54.29 1149.41 69.18 1161.27
  Q 73.36 1164.59 79.16 1167.39
  Q 88.13 1171.73 102.11 1180.33
  C 103.05 1180.90 104.65 1181.43 105.71 1182.04
  Q 120.01 1190.20 141.75 1202.50
  C 147.31 1205.65 154.66 1209.46 160.99 1213.24
  Q 170.78 1219.08 174.20 1221.03
  C 186.12 1227.82 194.49 1232.98 205.09 1238.34
  Q 211.45 1241.57 217.05 1244.74
  Q 238.59 1256.94 274.89 1278.14
  C 283.72 1283.30 293.42 1288.76 302.76 1294.22
  C 309.71 1298.28 319.07 1302.75 325.14 1306.53
  Q 332.96 1311.39 338.14 1314.04
  Q 342.86 1316.45 351.41 1321.76
  C 358.86 1326.39 370.29 1332.44 378.20 1337.17
  C 384.06 1340.67 389.42 1343.24 396.36 1347.45
  Q 402.72 1351.31 409.92 1355.26
  Q 431.97 1367.36 450.14 1378.27
  C 455.54 1381.51 459.73 1383.42 463.72 1385.98
  C 470.29 1390.19 476.79 1393.61 483.24 1396.98
  C 488.93 1399.96 494.91 1404.00 500.93 1407.76
  C 502.77 1408.92 504.97 1409.81 506.88 1410.88
  Q 540.70 1429.85 568.23 1446.19
  C 575.56 1450.54 582.62 1453.91 590.22 1458.42
  C 600.74 1464.66 612.94 1470.28 623.57 1474.82
  C 635.21 1479.79 647.86 1481.15 660.60 1481.12
  Q 662.43 1481.11 664.43 1481.43
  C 668.84 1482.12 673.57 1481.66 677.43 1481.65
  C 683.76 1481.64 689.02 1480.44 695.02 1479.65
  C 703.27 1478.57 711.81 1474.90 719.32 1471.26
  C 724.19 1468.90 727.46 1467.54 731.46 1465.36
  Q 755.39 1452.31 776.94 1439.18
  C 779.76 1437.47 783.89 1436.02 787.18 1434.02
  Q 794.12 1429.82 810.90 1420.37
  Q 817.39 1416.71 824.10 1412.90
  Q 850.63 1397.80 850.71 1397.75
  Q 854.33 1395.66 857.62 1393.80
  Q 868.45 1387.67 876.77 1382.51
  C 879.78 1380.65 883.10 1379.72 885.87 1377.87
  Q 895.62 1371.38 917.60 1359.34
  Q 925.80 1354.85 973.44 1327.41
  C 977.53 1325.05 983.24 1322.63 987.40 1320.02
  Q 1005.81 1308.49 1045.71 1286.70
  Q 1050.41 1284.14 1070.05 1272.39
  C 1077.86 1267.72 1085.97 1264.00 1093.27 1259.48
  Q 1102.88 1253.52 1110.40 1249.33
  Q 1120.11 1243.91 1124.04 1241.40
  C 1131.12 1236.87 1136.37 1234.38 1145.86 1229.11
  Q 1149.18 1227.27 1178.55 1210.19
  C 1180.84 1208.86 1184.05 1207.89 1186.27 1206.51
  C 1194.29 1201.57 1198.09 1198.80 1205.38 1195.08
  Q 1211.13 1192.15 1225.42 1183.45
  Q 1234.81 1177.73 1254.92 1166.76
  Q 1260.89 1163.50 1264.77 1160.21
  Q 1274.89 1151.63 1277.81 1148.54
  Q 1283.36 1142.69 1292.43 1131.92
  C 1301.72 1120.90 1308.61 1105.72 1311.94 1092.60
  C 1312.88 1088.90 1313.30 1085.25 1314.14 1082.35
  Q 1315.09 1079.07 1315.59 1074.63
  Q 1316.78 1063.94 1316.77 1054.50
  Q 1316.56 857.83 1317.04 685.41
  C 1317.22 621.01 1316.72 563.62 1317.30 505.75
  Q 1317.36 499.39 1317.33 435.70
  Q 1317.32 431.67 1317.10 430.30
  C 1316.33 425.63 1316.47 421.88 1315.21 416.98
  Q 1313.91 411.89 1311.41 402.44
  C 1309.57 395.47 1306.81 389.69 1303.69 383.55
  Q 1299.08 374.48 1297.13 371.10
  C 1290.77 360.06 1280.60 349.89 1270.69 340.74
  C 1267.43 337.73 1263.04 335.40 1259.92 333.03
  Q 1257.32 331.06 1251.24 328.07
  Q 1240.55 322.80 1226.83 314.19
  A 6.38 5.83 69.4 0 0 1225.81 313.67
  C 1223.85 312.89 1221.93 312.20 1220.19 310.93
  Q 1216.61 308.34 1213.19 306.77
  C 1211.16 305.84 1209.65 304.52 1207.16 302.83
  Q 1206.07 302.08 1195.86 296.56
  Q 1193.67 295.38 1186.76 291.29
  Q 1179.49 286.99 1177.58 286.15
  Q 1176.87 285.84 1163.76 278.41
  C 1160.83 276.75 1158.32 274.77 1155.72 273.73
  Q 1153.39 272.80 1149.59 270.37
  Q 1147.89 269.29 1142.41 266.46
  Q 1140.23 265.33 1135.29 262.37
  Q 1119.47 252.88 1106.93 246.33
  C 1099.47 242.42 1093.89 238.75 1087.05 234.85
  Q 1081.55 231.71 1080.15 231.06
  Q 1076.71 229.46 1073.30 227.14
  C 1067.35 223.11 1060.81 220.08 1054.02 216.41
  C 1047.56 212.92 1041.32 208.61 1035.70 205.69
  C 1028.78 202.10 1020.48 196.43 1012.80 192.18
  Q 994.34 181.97 980.51 174.11
  Q 975.96 171.52 974.14 170.21
  C 969.10 166.56 963.85 164.58 958.20 161.13
  Q 952.76 157.81 940.13 150.97
  Q 936.01 148.74 922.15 140.69
  Q 905.14 130.82 891.27 123.33
  C 881.35 117.98 871.90 112.12 860.46 105.55
  Q 850.64 99.91 840.82 94.95
  Q 838.86 93.96 826.38 86.30
  Q 823.93 84.79 822.09 83.86
  Q 820.13 82.88 817.76 81.50
  C 809.40 76.63 803.93 72.90 795.53 68.57
  C 789.90 65.67 784.90 61.83 779.20 59.26
  Q 776.49 58.04 773.54 55.89
  A 11.04 10.83 -13.6 0 0 771.80 54.85
  Q 764.07 51.13 758.42 47.39
  Q 755.39 45.38 752.31 44.05
  C 748.60 42.44 744.48 39.43 740.11 37.58
  Q 738.69 36.99 735.78 34.93
  Q 730.61 31.29 726.45 29.63
  Q 720.53 27.27 717.83 25.59
  A 7.18 7.09 68.3 0 0 716.00 24.79
  C 711.98 23.70 708.47 21.37 704.44 20.36
  Q 696.42 18.34 694.90 18.08
  Q 664.27 12.79 633.75 19.51
  C 632.19 19.85 630.21 21.17 628.41 21.76
  Q 615.36 26.06 600.41 33.49
  A 9.34 8.70 -75.1 0 0 598.93 34.42
  Q 595.44 37.09 591.94 38.79
  C 590.00 39.73 587.75 41.64 586.04 42.54
  Q 581.35 44.98 575.02 48.29
  C 571.92 49.90 568.76 52.39 565.55 53.78
  C 563.07 54.86 561.20 56.66 558.46 57.87
  Q 555.88 59.01 553.03 60.71
  Q 540.21 68.36 525.87 76.36
  Q 523.91 77.45 512.05 85.05
  Q 510.80 85.86 501.16 90.53
  A 8.37 8.34 13.5 0 0 499.80 91.36
  C 496.44 93.89 493.40 94.91 489.96 97.16
  Q 483.10 101.67 476.27 105.10
  C 472.87 106.82 469.85 109.40 466.18 110.86
  A 7.96 7.92 -73.7 0 0 464.44 111.82
  Q 461.72 113.83 460.50 114.48
  Q 436.19 127.56 409.30 143.36
  C 405.72 145.46 401.04 147.27 397.97 149.77
  A 6.72 6.65 14.1 0 1 396.18 150.83
  C 392.27 152.37 388.27 155.21 384.43 157.22
  Q 369.51 164.99 365.22 167.73
  C 356.18 173.50 339.21 183.47 325.40 190.78
  Q 321.66 192.76 308.65 200.62
  C 302.20 204.51 295.42 207.71 288.97 212.12
  Q 284.98 214.84 277.51 218.66
  Q 265.83 224.63 262.77 226.54
  Q 255.01 231.36 250.39 233.49
  C 248.16 234.53 245.58 236.88 243.86 237.61
  Q 240.51 239.04 235.69 242.16
  C 231.30 245.00 227.32 246.58 222.34 249.60
  Q 211.35 256.28 203.21 260.31
  Q 195.84 263.96 190.04 267.63
  Q 182.31 272.54 173.88 276.49
  A 4.68 4.54 -78.9 0 0 172.67 277.33
  C 170.29 279.62 167.26 280.48 164.73 282.11
  Q 159.70 285.34 151.67 289.41
  C 147.68 291.43 143.67 294.39 140.70 295.65
  C 137.72 296.92 135.52 299.20 132.29 300.63
  Q 128.96 302.11 125.84 304.08
  Q 120.67 307.34 111.02 312.99
  Q 108.46 314.49 107.63 314.94
  Q 91.81 323.61 75.05 332.55
  A 7.79 7.64 8.3 0 0 73.28 333.84
  Q 71.07 336.00 69.10 337.15
  C 64.66 339.74 61.67 343.05 57.87 346.04
  C 55.43 347.95 53.57 350.78 51.37 352.87
  Q 48.00 356.09 44.62 359.44
  C 42.94 361.11 42.27 363.40 40.75 365.38
  Q 32.95 375.53 27.62 389.09
  Q 25.77 393.78 23.92 398.57
  C 20.65 406.98 18.21 417.42 16.70 424.63
  Q 15.81 428.90 15.99 434.05
  Q 16.19 440.07 16.20 441.01
  Q 16.36 479.97 16.50 629.25
  Q 16.66 793.75 16.80 956.91
  Q 16.86 1027.54 16.41 1060.76
  C 16.35 1064.85 17.07 1067.79 17.34 1071.43"
/>
<path stroke="#aba9b5" vector-effect="non-scaling-stroke" d="
  M 600.02 925.43
  L 600.22 870.22"
/>
<path stroke="#f5ccb5" vector-effect="non-scaling-stroke" d="
  M 600.22 870.22
  Q 600.53 869.78 601.51 869.80
  Q 608.57 869.97 614.63 869.85
  A 1.68 1.67 89.5 0 0 616.27 868.17
  L 616.27 849.81
  A 1.65 1.65 0.0 0 0 614.28 848.19
  C 606.82 849.74 597.42 850.43 596.31 840.23
  C 595.93 836.71 598.80 834.05 601.67 832.62
  Q 603.35 831.78 606.92 831.95
  Q 612.56 832.20 615.46 832.41
  A 0.58 0.58 0.0 0 0 616.09 831.83
  L 616.09 811.86
  A 1.82 1.81 -89.4 0 0 614.32 810.04
  L 600.92 809.73
  A 0.30 0.30 0.0 0 1 600.77 809.69
  Q 600.06 809.35 600.25 808.77"
/>
<path stroke="#aba9b5" vector-effect="non-scaling-stroke" d="
  M 600.25 808.77
  L 600.11 758.00"
/>
<path stroke="#8199b0" vector-effect="non-scaling-stroke" d="
  M 600.11 758.00
  Q 600.31 611.46 599.87 465.00
  C 599.77 429.94 600.14 400.09 599.92 369.00
  Q 599.92 368.15 599.49 364.25
  A 0.90 0.90 0.0 0 0 598.59 363.44
  L 437.03 363.44
  A 0.74 0.74 0.0 0 0 436.29 364.18
  L 436.29 1117.56
  A 0.90 0.90 0.0 0 0 437.19 1118.46
  Q 516.40 1118.66 594.68 1118.67
  Q 596.11 1118.67 599.14 1118.21
  A 0.64 0.63 88.3 0 0 599.68 1117.63
  Q 600.18 1111.14 600.18 1109.50
  Q 600.06 1027.30 600.21 960.00
  Q 600.25 942.75 600.02 925.43"
/>
<path stroke="#354a6d" vector-effect="non-scaling-stroke" d="
  M 600.11 758.00
  C 578.93 770.06 556.44 780.31 542.52 801.54
  C 521.67 833.36 523.46 876.82 555.47 900.80
  Q 564.31 907.42 570.32 910.47
  Q 585.09 917.96 600.02 925.43"
/>
<path stroke="#a97d72" vector-effect="non-scaling-stroke" d="
  M 600.25 808.77
  Q 599.89 809.41 599.53 809.44
  Q 581.07 811.28 573.69 828.14
  Q 569.91 836.76 571.79 845.45
  Q 576.62 867.81 600.22 870.22"
/>
<path stroke="#99dbe5" vector-effect="non-scaling-stroke" d="
  M 632.02 372.26
  A 0.88 0.88 0.0 0 0 632.90 373.14
  L 685.33 373.14
  A 0.88 0.88 0.0 0 0 686.20 372.38
  L 687.23 364.67
  A 0.88 0.88 0.0 0 0 686.36 363.67
  L 632.90 363.67
  A 0.88 0.88 0.0 0 0 632.02 364.55
  L 632.02 372.26"
/>
<path stroke="#9bc0dc" vector-effect="non-scaling-stroke" d="
  M 634.78 387.98
  Q 633.85 387.72 633.04 388.02
  A 0.92 0.92 0.0 0 0 632.46 388.74
  Q 632.19 390.56 632.20 391.76
  Q 632.55 423.66 632.26 444.01
  Q 632.21 447.00 632.63 449.83
  A 0.61 0.60 -4.9 0 0 633.24 450.34
  Q 656.75 449.76 681.50 450.25
  C 706.83 450.74 733.44 456.83 755.95 469.05
  Q 779.93 482.07 799.09 502.07
  Q 804.71 507.93 809.40 514.06
  Q 815.59 522.15 818.65 526.85
  Q 834.34 551.01 840.59 579.89
  Q 842.64 589.36 844.54 597.55
  A 0.80 0.78 2.0 0 0 845.10 598.14
  Q 852.71 600.36 853.70 607.61
  C 855.52 620.96 836.56 625.49 832.52 612.94
  Q 829.71 604.23 837.30 599.07
  A 1.48 1.48 0.0 0 0 837.93 597.64
  C 835.00 576.95 828.74 556.10 817.96 538.08
  C 800.80 509.40 776.10 485.33 745.63 471.39
  C 728.58 463.59 711.01 458.29 692.57 456.93
  C 674.23 455.59 659.29 456.21 633.26 456.93
  A 1.16 1.16 0.0 0 0 632.13 458.09
  L 632.13 502.43
  A 0.88 0.87 6.2 0 0 632.82 503.28
  Q 634.20 503.59 636.25 503.58
  Q 654.46 503.47 680.19 503.63
  Q 696.12 503.72 711.29 508.46
  Q 751.83 521.14 775.08 556.96
  C 793.01 584.57 798.22 618.70 790.35 650.60
  Q 786.86 664.77 782.37 674.09
  Q 777.83 683.52 768.47 695.84"
/>
<path stroke="#a7aed7" vector-effect="non-scaling-stroke" d="
  M 768.47 695.84
  C 751.68 717.39 726.17 733.87 699.25 738.65
  Q 690.40 740.23 678.17 740.13
  Q 663.97 740.03 637.50 740.12
  Q 634.84 740.13 633.79 740.28
  A 0.76 0.76 0.0 0 0 633.13 741.03
  L 633.13 788.34
  A 0.52 0.52 0.0 0 0 633.63 788.86
  Q 657.04 789.64 679.25 789.42
  Q 693.75 789.27 705.25 788.21
  Q 731.34 785.80 754.99 774.20
  C 773.92 764.90 792.24 750.81 806.13 733.75
  C 816.37 721.16 824.46 708.47 830.10 693.33
  C 830.59 692.02 831.55 690.84 832.06 689.58
  A 0.81 0.81 0.0 0 0 831.73 688.58
  Q 821.04 682.06 818.58 671.65
  Q 816.04 660.87 822.04 650.62"
/>
<path stroke="#9bc0dc" vector-effect="non-scaling-stroke" d="
  M 822.04 650.62
  C 827.80 639.00 841.08 636.91 852.09 641.55
  C 864.21 646.67 868.19 660.62 864.77 672.52
  Q 860.47 687.49 843.45 690.23"
/>
<path stroke="#a7aed7" vector-effect="non-scaling-stroke" d="
  M 843.45 690.23
  Q 840.62 690.69 837.92 690.15
  A 0.61 0.61 0.0 0 0 837.23 690.54
  C 831.68 706.22 824.16 721.11 813.58 734.27
  Q 799.06 752.33 781.36 765.35
  Q 739.79 795.93 687.49 795.66
  Q 682.23 795.64 676.96 795.58"
/>
<path stroke="#c0aacd" vector-effect="non-scaling-stroke" d="
  M 676.96 795.58
  L 633.78 795.01
  A 0.71 0.70 -89.6 0 0 633.07 795.72
  L 633.07 833.12
  A 0.70 0.70 0.0 0 0 633.77 833.82
  L 660.64 833.82
  A 1.46 1.45 -81.7 0 0 662.03 832.78
  Q 663.91 826.32 668.71 822.24
  Q 677.61 814.67 688.87 816.51"
/>
<path stroke="#a7aed7" vector-effect="non-scaling-stroke" d="
  M 688.87 816.51
  Q 697.27 818.63 702.00 822.77
  C 713.14 832.52 713.21 849.04 703.99 859.76
  Q 696.33 868.65 682.26 867.52"
/>
<path stroke="#c0aacd" vector-effect="non-scaling-stroke" d="
  M 682.26 867.52
  Q 666.87 864.33 661.63 850.00
  A 1.87 1.87 0.0 0 0 659.88 848.78
  L 633.73 848.78
  A 0.97 0.96 -90.0 0 0 632.77 849.75
  L 632.77 880.93
  A 1.52 1.51 90.0 0 0 634.28 882.45
  L 674.94 882.54"
/>
<path stroke="#a7aed7" vector-effect="non-scaling-stroke" d="
  M 674.94 882.54
  L 700.57 880.98"
/>
<path stroke="#a9b7de" vector-effect="non-scaling-stroke" d="
  M 700.57 880.98
  C 712.74 880.18 724.67 878.10 736.81 875.73
  C 794.39 864.47 843.39 831.40 879.61 785.76
  C 887.42 775.91 892.93 768.55 899.07 758.11"
/>
<path stroke="#9bc0dc" vector-effect="non-scaling-stroke" d="
  M 899.07 758.11
  Q 928.97 708.37 934.92 650.41"
/>
<path stroke="#9ecfe5" vector-effect="non-scaling-stroke" d="
  M 934.92 650.41
  Q 938.49 615.80 933.48 581.20"
/>
<path stroke="#99dbe5" vector-effect="non-scaling-stroke" d="
  M 933.48 581.20
  C 929.86 554.10 920.86 527.81 909.11 503.30
  C 900.65 485.67 889.19 467.88 877.38 453.64
  Q 859.96 432.65 838.04 415.45
  C 832.75 411.30 823.61 405.02 816.32 400.46
  Q 777.76 376.36 733.17 367.97
  A 0.59 0.58 85.0 0 0 732.52 368.75
  C 738.23 383.91 732.30 403.56 714.50 406.72
  C 702.13 408.91 689.07 402.17 686.68 389.07
  A 1.62 1.62 0.0 0 0 685.09 387.74
  L 634.78 387.98"
/>
<path stroke="#40b1d2" vector-effect="non-scaling-stroke" d="
  M 933.48 581.20
  Q 915.12 570.45 902.94 560.32
  C 886.59 546.72 876.46 538.43 861.91 529.16
  C 848.88 520.86 836.03 512.15 822.40 504.97"
/>
<path stroke="#3da2c9" vector-effect="non-scaling-stroke" d="
  M 822.40 504.97
  Q 805.42 480.74 783.94 460.45
  Q 779.17 455.95 772.60 450.59
  C 759.66 440.02 746.42 429.02 730.43 421.10
  Q 718.47 415.18 715.74 414.01
  Q 711.70 412.26 703.51 410.23
  Q 699.01 409.11 694.11 406.23
  Q 689.51 403.53 685.86 402.05
  Q 672.63 396.67 658.59 393.19
  C 652.84 391.77 646.10 391.26 641.38 390.57
  Q 638.53 390.15 637.11 388.51
  A 1.20 1.20 0.0 0 0 636.30 388.10
  L 634.78 387.98"
/>
<path stroke="#4296c9" vector-effect="non-scaling-stroke" d="
  M 822.40 504.97
  Q 828.10 513.76 833.58 522.59
  Q 860.43 565.80 863.10 616.12
  A 1.24 1.20 -71.2 0 0 863.49 616.95
  Q 874.57 627.20 885.20 632.80
  Q 907.75 644.69 934.92 650.41"
/>
<path stroke="#4c7fc2" vector-effect="non-scaling-stroke" d="
  M 899.07 758.11
  C 885.81 761.12 874.47 762.13 861.39 757.44
  Q 849.15 753.06 837.46 746.94"
/>
<path stroke="#4a76bb" vector-effect="non-scaling-stroke" d="
  M 837.46 746.94
  Q 847.99 725.07 853.89 701.34
  A 0.90 0.90 0.0 0 0 853.65 700.49
  L 843.45 690.23"
/>
<path stroke="#4a76bb" vector-effect="non-scaling-stroke" d="
  M 822.04 650.62
  L 819.89 649.50"
/>
<path stroke="#9bc0dc" vector-effect="non-scaling-stroke" d="
  M 819.89 649.50
  Q 822.86 630.52 821.10 611.36
  C 819.13 589.87 813.39 567.98 803.28 549.40
  Q 790.49 525.87 770.46 509.06
  Q 755.43 496.45 740.64 489.32
  Q 708.84 474.01 672.82 476.53
  A 1.35 1.35 0.0 0 1 671.51 475.75
  C 668.07 468.41 658.79 465.20 652.48 471.28
  C 641.87 481.51 658.29 498.99 668.71 487.07
  C 669.92 485.69 670.33 483.79 671.53 482.66
  A 1.56 1.53 20.5 0 1 672.43 482.26
  C 709.17 479.04 749.74 495.27 775.01 521.98
  Q 781.91 529.26 782.84 530.41
  Q 791.92 541.65 799.30 555.70
  Q 803.25 563.22 808.28 577.78
  C 814.35 595.36 816.46 615.50 815.11 633.73
  C 814.05 648.16 812.46 661.82 807.61 675.16
  Q 803.73 685.85 801.22 691.25
  Q 800.04 693.81 798.77 695.67
  A 1.45 1.44 -73.8 0 1 797.64 696.30
  C 793.40 696.53 789.03 696.44 786.06 699.81
  Q 780.89 705.70 783.22 712.65
  C 783.81 714.39 784.73 715.75 785.13 717.08
  A 1.32 1.32 0.0 0 1 784.89 718.29
  L 779.09 725.47"
/>
<path stroke="#4a76bb" vector-effect="non-scaling-stroke" d="
  M 779.09 725.47
  Q 772.51 711.17 768.47 695.84"
/>
<path stroke="#586dbc" vector-effect="non-scaling-stroke" d="
  M 837.46 746.94
  C 834.92 751.41 832.58 756.27 830.16 760.41
  Q 818.37 780.58 802.90 798.81
  Q 794.17 809.11 784.42 818.03
  Q 770.52 830.75 764.42 835.67
  Q 747.07 849.67 716.83 869.37
  Q 715.04 870.54 707.40 873.96
  C 704.79 875.12 703.79 875.94 701.51 877.36
  A 1.06 1.06 0.0 0 0 701.01 878.12
  L 700.57 880.98"
/>
<path stroke="#7060ab" vector-effect="non-scaling-stroke" d="
  M 674.94 882.54
  Q 677.86 874.64 682.26 867.52"
/>
<path stroke="#7060ab" vector-effect="non-scaling-stroke" d="
  M 688.87 816.51
  Q 682.26 806.47 676.96 795.58"
/>
<path stroke="#a7aed7" vector-effect="non-scaling-stroke" d="
  M 819.89 649.50
  Q 816.20 667.95 809.55 685.53
  Q 807.14 691.91 803.71 697.35
  A 0.98 0.97 48.1 0 0 803.66 698.30
  C 804.05 699.05 805.39 700.07 806.02 701.21
  Q 809.56 707.67 807.35 713.37
  C 804.89 719.69 799.23 722.41 792.68 719.94
  A 1.45 1.44 30.2 0 0 791.05 720.37
  C 785.68 726.83 781.05 732.66 775.38 737.63
  C 749.47 760.36 715.74 770.90 681.46 769.47
  A 1.48 1.47 -74.5 0 0 680.10 770.24
  C 677.94 774.14 673.80 777.70 668.99 777.29
  C 663.95 776.86 660.30 773.06 659.05 768.44
  Q 657.31 761.99 662.31 756.98
  C 668.66 750.61 677.23 755.18 680.21 762.17
  A 2.43 2.41 78.8 0 0 682.38 763.63
  Q 699.66 763.95 716.81 760.38
  C 741.03 755.33 762.18 743.43 779.09 725.47"
/>
<path stroke="#99dbe5" vector-effect="non-scaling-stroke" d="
  M 709.5691 371.8010
  A 9.96 9.64 -89.2 0 0 699.7909 381.6254
  A 9.96 9.64 -89.2 0 0 709.2909 391.7190
  A 9.96 9.64 -89.2 0 0 719.0691 381.8946
  A 9.96 9.64 -89.2 0 0 709.5691 371.8010"
/>
<path stroke="#a9b7de" vector-effect="non-scaling-stroke" d="
  M 851.28 664.48
  A 9.72 9.72 0.0 0 0 841.56 654.76
  A 9.72 9.72 0.0 0 0 831.84 664.48
  A 9.72 9.72 0.0 0 0 841.56 674.20
  A 9.72 9.72 0.0 0 0 851.28 664.48"
/>
<path stroke="#c0aacd" vector-effect="non-scaling-stroke" d="
  M 675.7356 840.0804
  A 10.08 9.77 -169.6 0 0 683.8863 851.5095
  A 10.08 9.77 -169.6 0 0 695.5644 843.7196
  A 10.08 9.77 -169.6 0 0 687.4137 832.2905
  A 10.08 9.77 -169.6 0 0 675.7356 840.0804"
/>
<path stroke="#a9b7de" vector-effect="non-scaling-stroke" d="
  M 789.0816 707.4613
  A 6.43 6.25 -169.8 0 0 794.3032 714.7512
  A 6.43 6.25 -169.8 0 0 801.7384 709.7387
  A 6.43 6.25 -169.8 0 0 796.5168 702.4488
  A 6.43 6.25 -169.8 0 0 789.0816 707.4613"
/>
</g>
<path fill="#06143c" d="
  M 5.36 1087.51
  C 3.65 1076.90 2.64 1066.61 2.64 1055.25
  Q 2.60 756.46 2.77 481.75
  Q 2.78 454.19 3.01 440.00
  Q 3.19 428.19 4.63 416.07
  Q 5.54 408.38 7.85 401.60
  Q 11.93 389.61 17.59 376.47
  C 20.16 370.52 24.26 365.18 27.09 360.70
  C 32.04 352.89 39.09 345.52 44.74 339.49
  Q 50.31 333.55 57.31 328.36
  Q 66.16 321.80 66.44 321.58
  Q 70.00 318.85 76.09 315.61
  C 83.23 311.81 88.30 309.53 94.81 305.52
  Q 103.95 299.88 114.42 294.41
  Q 118.33 292.37 126.01 287.88
  Q 135.50 282.31 137.51 281.21
  Q 151.21 273.69 160.46 268.18
  C 173.43 260.46 185.64 254.51 198.86 247.09
  Q 207.97 241.98 230.47 228.68
  C 239.37 223.41 247.85 219.81 257.31 214.10
  Q 282.66 198.80 311.25 182.91
  C 317.78 179.28 325.44 174.81 332.06 170.50
  Q 334.45 168.94 340.54 165.79
  Q 363.87 153.74 383.41 141.42
  C 385.45 140.13 388.29 138.98 390.38 137.70
  Q 400.98 131.17 414.02 124.30
  C 428.25 116.81 441.40 108.54 455.95 100.72
  Q 459.51 98.80 473.46 90.58
  C 484.35 84.17 490.34 80.95 496.80 76.96
  Q 500.38 74.75 502.66 73.53
  Q 516.84 65.91 529.46 58.29
  C 538.52 52.82 549.21 47.41 557.81 42.17
  Q 577.31 30.29 594.81 21.09
  Q 599.45 18.66 613.99 12.02
  Q 626.97 6.09 639.14 4.17
  Q 641.35 3.82 648.86 2.80
  C 658.51 1.48 667.77 1.73 678.20 1.84
  Q 684.52 1.90 691.23 3.27
  C 701.01 5.27 710.10 7.00 719.80 10.72
  C 726.35 13.24 735.58 17.80 743.25 22.12
  Q 767.34 35.69 771.33 38.14
  Q 778.62 42.62 796.01 51.83
  Q 803.14 55.60 820.40 66.01
  C 831.80 72.88 843.86 79.54 854.96 85.41
  C 860.44 88.32 865.13 91.68 870.86 94.72
  Q 879.49 99.30 887.27 104.06
  C 897.12 110.08 905.49 114.34 915.57 120.28
  C 923.08 124.72 932.29 129.05 939.08 133.19
  C 945.65 137.20 957.24 144.72 965.98 149.48
  Q 983.61 159.08 989.46 162.17
  Q 999.26 167.35 1012.59 175.51
  Q 1025.73 183.56 1043.10 192.60
  Q 1051.67 197.07 1060.22 202.38
  Q 1082.25 216.07 1094.16 222.31
  Q 1106.63 228.85 1116.36 234.66
  C 1130.62 243.17 1144.30 250.84 1159.89 259.84
  C 1165.94 263.33 1171.89 265.95 1177.92 269.55
  Q 1181.01 271.40 1188.37 275.12
  C 1196.47 279.22 1206.62 285.74 1215.34 290.43
  Q 1226.82 296.61 1243.40 305.76
  C 1254.06 311.63 1263.34 318.01 1274.91 325.07
  Q 1276.64 326.13 1285.02 333.34
  C 1292.24 339.56 1299.75 350.05 1304.09 356.15
  C 1313.46 369.30 1319.96 383.61 1325.15 398.66
  C 1329.83 412.21 1331.84 426.86 1331.52 441.26
  Q 1331.52 441.28 1331.52 447.74
  C 1331.42 677.14 1331.17 841.73 1331.60 1045.76
  Q 1331.64 1061.83 1330.90 1069.72
  C 1330.34 1075.74 1329.08 1084.24 1327.22 1090.99
  Q 1324.28 1101.63 1319.97 1112.69
  Q 1315.75 1123.50 1309.47 1132.90
  Q 1300.00 1147.08 1290.36 1157.10
  Q 1280.62 1167.20 1266.51 1176.25
  Q 1251.41 1185.93 1236.35 1194.09
  C 1232.56 1196.14 1228.86 1198.86 1224.65 1200.99
  Q 1215.48 1205.62 1208.53 1209.80
  Q 1195.10 1217.88 1180.08 1226.13
  Q 1158.19 1238.16 1153.09 1241.13
  C 1137.14 1250.43 1121.74 1259.68 1105.67 1268.44
  Q 1096.34 1273.52 1085.00 1280.37
  C 1070.59 1289.08 1051.19 1299.50 1035.64 1308.43
  Q 1016.73 1319.29 1015.95 1319.74
  Q 1011.20 1322.43 1010.41 1322.87
  Q 977.79 1340.88 977.03 1341.27
  C 970.59 1344.64 961.07 1350.68 953.93 1354.29
  Q 948.42 1357.09 938.72 1363.03
  Q 935.91 1364.75 928.51 1368.77
  C 920.93 1372.87 912.96 1378.06 904.96 1382.42
  Q 899.27 1385.51 891.50 1390.10
  Q 847.90 1415.85 838.49 1420.95
  Q 828.89 1426.16 824.56 1428.55
  C 813.34 1434.77 801.90 1441.82 791.00 1447.71
  C 788.62 1449.00 785.95 1450.91 783.34 1452.32
  Q 764.83 1462.29 742.76 1475.23
  C 728.93 1483.34 713.96 1489.99 697.97 1493.15
  Q 688.01 1495.11 674.29 1495.61
  Q 672.33 1495.68 653.77 1494.94
  Q 641.27 1494.43 633.37 1492.62
  Q 619.88 1489.52 613.18 1486.78
  Q 608.65 1484.94 597.85 1478.65
  Q 593.78 1476.27 592.09 1475.49
  C 585.91 1472.63 581.29 1469.04 574.40 1465.84
  Q 571.33 1464.42 561.57 1458.74
  C 552.18 1453.28 541.91 1447.81 534.36 1443.27
  C 523.10 1436.50 514.88 1432.43 503.08 1425.19
  C 490.39 1417.41 477.32 1410.57 463.80 1402.41
  Q 458.50 1399.20 447.22 1392.72
  Q 438.95 1387.96 430.77 1382.85
  C 428.26 1381.28 424.50 1380.08 421.48 1378.04
  Q 414.85 1373.56 405.35 1368.41
  C 391.19 1360.74 381.95 1355.36 374.81 1351.78
  Q 372.84 1350.79 371.43 1349.95
  Q 354.98 1340.11 343.32 1333.73
  Q 330.63 1326.77 325.89 1324.00
  C 315.27 1317.78 306.38 1313.10 296.21 1306.61
  C 289.00 1302.01 280.45 1298.52 273.08 1294.16
  Q 262.31 1287.76 240.79 1274.76
  C 231.68 1269.25 223.69 1265.72 214.62 1260.27
  C 201.78 1252.56 190.31 1245.63 176.01 1237.85
  Q 150.36 1223.86 128.88 1211.55
  C 120.97 1207.01 108.81 1201.68 100.73 1195.97
  Q 95.98 1192.62 90.53 1189.97
  Q 78.62 1184.19 66.31 1176.35
  C 60.05 1172.36 57.39 1169.63 50.90 1164.26
  C 45.83 1160.07 42.16 1155.17 37.61 1150.35
  Q 32.79 1145.24 32.18 1144.31
  Q 25.48 1134.18 21.43 1128.30
  C 20.05 1126.29 18.51 1123.57 17.50 1120.93
  Q 13.93 1111.60 8.15 1097.13
  Q 6.09 1091.96 5.36 1087.51
  Z
  M 17.34 1071.43
  C 17.94 1079.23 20.27 1088.59 23.30 1096.75
  Q 32.10 1120.46 46.64 1139.43
  Q 54.29 1149.41 69.18 1161.27
  Q 73.36 1164.59 79.16 1167.39
  Q 88.13 1171.73 102.11 1180.33
  C 103.05 1180.90 104.65 1181.43 105.71 1182.04
  Q 120.01 1190.20 141.75 1202.50
  C 147.31 1205.65 154.66 1209.46 160.99 1213.24
  Q 170.78 1219.08 174.20 1221.03
  C 186.12 1227.82 194.49 1232.98 205.09 1238.34
  Q 211.45 1241.57 217.05 1244.74
  Q 238.59 1256.94 274.89 1278.14
  C 283.72 1283.30 293.42 1288.76 302.76 1294.22
  C 309.71 1298.28 319.07 1302.75 325.14 1306.53
  Q 332.96 1311.39 338.14 1314.04
  Q 342.86 1316.45 351.41 1321.76
  C 358.86 1326.39 370.29 1332.44 378.20 1337.17
  C 384.06 1340.67 389.42 1343.24 396.36 1347.45
  Q 402.72 1351.31 409.92 1355.26
  Q 431.97 1367.36 450.14 1378.27
  C 455.54 1381.51 459.73 1383.42 463.72 1385.98
  C 470.29 1390.19 476.79 1393.61 483.24 1396.98
  C 488.93 1399.96 494.91 1404.00 500.93 1407.76
  C 502.77 1408.92 504.97 1409.81 506.88 1410.88
  Q 540.70 1429.85 568.23 1446.19
  C 575.56 1450.54 582.62 1453.91 590.22 1458.42
  C 600.74 1464.66 612.94 1470.28 623.57 1474.82
  C 635.21 1479.79 647.86 1481.15 660.60 1481.12
  Q 662.43 1481.11 664.43 1481.43
  C 668.84 1482.12 673.57 1481.66 677.43 1481.65
  C 683.76 1481.64 689.02 1480.44 695.02 1479.65
  C 703.27 1478.57 711.81 1474.90 719.32 1471.26
  C 724.19 1468.90 727.46 1467.54 731.46 1465.36
  Q 755.39 1452.31 776.94 1439.18
  C 779.76 1437.47 783.89 1436.02 787.18 1434.02
  Q 794.12 1429.82 810.90 1420.37
  Q 817.39 1416.71 824.10 1412.90
  Q 850.63 1397.80 850.71 1397.75
  Q 854.33 1395.66 857.62 1393.80
  Q 868.45 1387.67 876.77 1382.51
  C 879.78 1380.65 883.10 1379.72 885.87 1377.87
  Q 895.62 1371.38 917.60 1359.34
  Q 925.80 1354.85 973.44 1327.41
  C 977.53 1325.05 983.24 1322.63 987.40 1320.02
  Q 1005.81 1308.49 1045.71 1286.70
  Q 1050.41 1284.14 1070.05 1272.39
  C 1077.86 1267.72 1085.97 1264.00 1093.27 1259.48
  Q 1102.88 1253.52 1110.40 1249.33
  Q 1120.11 1243.91 1124.04 1241.40
  C 1131.12 1236.87 1136.37 1234.38 1145.86 1229.11
  Q 1149.18 1227.27 1178.55 1210.19
  C 1180.84 1208.86 1184.05 1207.89 1186.27 1206.51
  C 1194.29 1201.57 1198.09 1198.80 1205.38 1195.08
  Q 1211.13 1192.15 1225.42 1183.45
  Q 1234.81 1177.73 1254.92 1166.76
  Q 1260.89 1163.50 1264.77 1160.21
  Q 1274.89 1151.63 1277.81 1148.54
  Q 1283.36 1142.69 1292.43 1131.92
  C 1301.72 1120.90 1308.61 1105.72 1311.94 1092.60
  C 1312.88 1088.90 1313.30 1085.25 1314.14 1082.35
  Q 1315.09 1079.07 1315.59 1074.63
  Q 1316.78 1063.94 1316.77 1054.50
  Q 1316.56 857.83 1317.04 685.41
  C 1317.22 621.01 1316.72 563.62 1317.30 505.75
  Q 1317.36 499.39 1317.33 435.70
  Q 1317.32 431.67 1317.10 430.30
  C 1316.33 425.63 1316.47 421.88 1315.21 416.98
  Q 1313.91 411.89 1311.41 402.44
  C 1309.57 395.47 1306.81 389.69 1303.69 383.55
  Q 1299.08 374.48 1297.13 371.10
  C 1290.77 360.06 1280.60 349.89 1270.69 340.74
  C 1267.43 337.73 1263.04 335.40 1259.92 333.03
  Q 1257.32 331.06 1251.24 328.07
  Q 1240.55 322.80 1226.83 314.19
  A 6.38 5.83 69.4 0 0 1225.81 313.67
  C 1223.85 312.89 1221.93 312.20 1220.19 310.93
  Q 1216.61 308.34 1213.19 306.77
  C 1211.16 305.84 1209.65 304.52 1207.16 302.83
  Q 1206.07 302.08 1195.86 296.56
  Q 1193.67 295.38 1186.76 291.29
  Q 1179.49 286.99 1177.58 286.15
  Q 1176.87 285.84 1163.76 278.41
  C 1160.83 276.75 1158.32 274.77 1155.72 273.73
  Q 1153.39 272.80 1149.59 270.37
  Q 1147.89 269.29 1142.41 266.46
  Q 1140.23 265.33 1135.29 262.37
  Q 1119.47 252.88 1106.93 246.33
  C 1099.47 242.42 1093.89 238.75 1087.05 234.85
  Q 1081.55 231.71 1080.15 231.06
  Q 1076.71 229.46 1073.30 227.14
  C 1067.35 223.11 1060.81 220.08 1054.02 216.41
  C 1047.56 212.92 1041.32 208.61 1035.70 205.69
  C 1028.78 202.10 1020.48 196.43 1012.80 192.18
  Q 994.34 181.97 980.51 174.11
  Q 975.96 171.52 974.14 170.21
  C 969.10 166.56 963.85 164.58 958.20 161.13
  Q 952.76 157.81 940.13 150.97
  Q 936.01 148.74 922.15 140.69
  Q 905.14 130.82 891.27 123.33
  C 881.35 117.98 871.90 112.12 860.46 105.55
  Q 850.64 99.91 840.82 94.95
  Q 838.86 93.96 826.38 86.30
  Q 823.93 84.79 822.09 83.86
  Q 820.13 82.88 817.76 81.50
  C 809.40 76.63 803.93 72.90 795.53 68.57
  C 789.90 65.67 784.90 61.83 779.20 59.26
  Q 776.49 58.04 773.54 55.89
  A 11.04 10.83 -13.6 0 0 771.80 54.85
  Q 764.07 51.13 758.42 47.39
  Q 755.39 45.38 752.31 44.05
  C 748.60 42.44 744.48 39.43 740.11 37.58
  Q 738.69 36.99 735.78 34.93
  Q 730.61 31.29 726.45 29.63
  Q 720.53 27.27 717.83 25.59
  A 7.18 7.09 68.3 0 0 716.00 24.79
  C 711.98 23.70 708.47 21.37 704.44 20.36
  Q 696.42 18.34 694.90 18.08
  Q 664.27 12.79 633.75 19.51
  C 632.19 19.85 630.21 21.17 628.41 21.76
  Q 615.36 26.06 600.41 33.49
  A 9.34 8.70 -75.1 0 0 598.93 34.42
  Q 595.44 37.09 591.94 38.79
  C 590.00 39.73 587.75 41.64 586.04 42.54
  Q 581.35 44.98 575.02 48.29
  C 571.92 49.90 568.76 52.39 565.55 53.78
  C 563.07 54.86 561.20 56.66 558.46 57.87
  Q 555.88 59.01 553.03 60.71
  Q 540.21 68.36 525.87 76.36
  Q 523.91 77.45 512.05 85.05
  Q 510.80 85.86 501.16 90.53
  A 8.37 8.34 13.5 0 0 499.80 91.36
  C 496.44 93.89 493.40 94.91 489.96 97.16
  Q 483.10 101.67 476.27 105.10
  C 472.87 106.82 469.85 109.40 466.18 110.86
  A 7.96 7.92 -73.7 0 0 464.44 111.82
  Q 461.72 113.83 460.50 114.48
  Q 436.19 127.56 409.30 143.36
  C 405.72 145.46 401.04 147.27 397.97 149.77
  A 6.72 6.65 14.1 0 1 396.18 150.83
  C 392.27 152.37 388.27 155.21 384.43 157.22
  Q 369.51 164.99 365.22 167.73
  C 356.18 173.50 339.21 183.47 325.40 190.78
  Q 321.66 192.76 308.65 200.62
  C 302.20 204.51 295.42 207.71 288.97 212.12
  Q 284.98 214.84 277.51 218.66
  Q 265.83 224.63 262.77 226.54
  Q 255.01 231.36 250.39 233.49
  C 248.16 234.53 245.58 236.88 243.86 237.61
  Q 240.51 239.04 235.69 242.16
  C 231.30 245.00 227.32 246.58 222.34 249.60
  Q 211.35 256.28 203.21 260.31
  Q 195.84 263.96 190.04 267.63
  Q 182.31 272.54 173.88 276.49
  A 4.68 4.54 -78.9 0 0 172.67 277.33
  C 170.29 279.62 167.26 280.48 164.73 282.11
  Q 159.70 285.34 151.67 289.41
  C 147.68 291.43 143.67 294.39 140.70 295.65
  C 137.72 296.92 135.52 299.20 132.29 300.63
  Q 128.96 302.11 125.84 304.08
  Q 120.67 307.34 111.02 312.99
  Q 108.46 314.49 107.63 314.94
  Q 91.81 323.61 75.05 332.55
  A 7.79 7.64 8.3 0 0 73.28 333.84
  Q 71.07 336.00 69.10 337.15
  C 64.66 339.74 61.67 343.05 57.87 346.04
  C 55.43 347.95 53.57 350.78 51.37 352.87
  Q 48.00 356.09 44.62 359.44
  C 42.94 361.11 42.27 363.40 40.75 365.38
  Q 32.95 375.53 27.62 389.09
  Q 25.77 393.78 23.92 398.57
  C 20.65 406.98 18.21 417.42 16.70 424.63
  Q 15.81 428.90 15.99 434.05
  Q 16.19 440.07 16.20 441.01
  Q 16.36 479.97 16.50 629.25
  Q 16.66 793.75 16.80 956.91
  Q 16.86 1027.54 16.41 1060.76
  C 16.35 1064.85 17.07 1067.79 17.34 1071.43
  Z"
/>
<path fill="#f7f8f8" d="
  M 17.34 1071.43
  C 17.07 1067.79 16.35 1064.85 16.41 1060.76
  Q 16.86 1027.54 16.80 956.91
  Q 16.66 793.75 16.50 629.25
  Q 16.36 479.97 16.20 441.01
  Q 16.19 440.07 15.99 434.05
  Q 15.81 428.90 16.70 424.63
  C 18.21 417.42 20.65 406.98 23.92 398.57
  Q 25.77 393.78 27.62 389.09
  Q 32.95 375.53 40.75 365.38
  C 42.27 363.40 42.94 361.11 44.62 359.44
  Q 48.00 356.09 51.37 352.87
  C 53.57 350.78 55.43 347.95 57.87 346.04
  C 61.67 343.05 64.66 339.74 69.10 337.15
  Q 71.07 336.00 73.28 333.84
  A 7.79 7.64 8.3 0 1 75.05 332.55
  Q 91.81 323.61 107.63 314.94
  Q 108.46 314.49 111.02 312.99
  Q 120.67 307.34 125.84 304.08
  Q 128.96 302.11 132.29 300.63
  C 135.52 299.20 137.72 296.92 140.70 295.65
  C 143.67 294.39 147.68 291.43 151.67 289.41
  Q 159.70 285.34 164.73 282.11
  C 167.26 280.48 170.29 279.62 172.67 277.33
  A 4.68 4.54 -78.9 0 1 173.88 276.49
  Q 182.31 272.54 190.04 267.63
  Q 195.84 263.96 203.21 260.31
  Q 211.35 256.28 222.34 249.60
  C 227.32 246.58 231.30 245.00 235.69 242.16
  Q 240.51 239.04 243.86 237.61
  C 245.58 236.88 248.16 234.53 250.39 233.49
  Q 255.01 231.36 262.77 226.54
  Q 265.83 224.63 277.51 218.66
  Q 284.98 214.84 288.97 212.12
  C 295.42 207.71 302.20 204.51 308.65 200.62
  Q 321.66 192.76 325.40 190.78
  C 339.21 183.47 356.18 173.50 365.22 167.73
  Q 369.51 164.99 384.43 157.22
  C 388.27 155.21 392.27 152.37 396.18 150.83
  A 6.72 6.65 14.1 0 0 397.97 149.77
  C 401.04 147.27 405.72 145.46 409.30 143.36
  Q 436.19 127.56 460.50 114.48
  Q 461.72 113.83 464.44 111.82
  A 7.96 7.92 -73.7 0 1 466.18 110.86
  C 469.85 109.40 472.87 106.82 476.27 105.10
  Q 483.10 101.67 489.96 97.16
  C 493.40 94.91 496.44 93.89 499.80 91.36
  A 8.37 8.34 13.5 0 1 501.16 90.53
  Q 510.80 85.86 512.05 85.05
  Q 523.91 77.45 525.87 76.36
  Q 540.21 68.36 553.03 60.71
  Q 555.88 59.01 558.46 57.87
  C 561.20 56.66 563.07 54.86 565.55 53.78
  C 568.76 52.39 571.92 49.90 575.02 48.29
  Q 581.35 44.98 586.04 42.54
  C 587.75 41.64 590.00 39.73 591.94 38.79
  Q 595.44 37.09 598.93 34.42
  A 9.34 8.70 -75.1 0 1 600.41 33.49
  Q 615.36 26.06 628.41 21.76
  C 630.21 21.17 632.19 19.85 633.75 19.51
  Q 664.27 12.79 694.90 18.08
  Q 696.42 18.34 704.44 20.36
  C 708.47 21.37 711.98 23.70 716.00 24.79
  A 7.18 7.09 68.3 0 1 717.83 25.59
  Q 720.53 27.27 726.45 29.63
  Q 730.61 31.29 735.78 34.93
  Q 738.69 36.99 740.11 37.58
  C 744.48 39.43 748.60 42.44 752.31 44.05
  Q 755.39 45.38 758.42 47.39
  Q 764.07 51.13 771.80 54.85
  A 11.04 10.83 -13.6 0 1 773.54 55.89
  Q 776.49 58.04 779.20 59.26
  C 784.90 61.83 789.90 65.67 795.53 68.57
  C 803.93 72.90 809.40 76.63 817.76 81.50
  Q 820.13 82.88 822.09 83.86
  Q 823.93 84.79 826.38 86.30
  Q 838.86 93.96 840.82 94.95
  Q 850.64 99.91 860.46 105.55
  C 871.90 112.12 881.35 117.98 891.27 123.33
  Q 905.14 130.82 922.15 140.69
  Q 936.01 148.74 940.13 150.97
  Q 952.76 157.81 958.20 161.13
  C 963.85 164.58 969.10 166.56 974.14 170.21
  Q 975.96 171.52 980.51 174.11
  Q 994.34 181.97 1012.80 192.18
  C 1020.48 196.43 1028.78 202.10 1035.70 205.69
  C 1041.32 208.61 1047.56 212.92 1054.02 216.41
  C 1060.81 220.08 1067.35 223.11 1073.30 227.14
  Q 1076.71 229.46 1080.15 231.06
  Q 1081.55 231.71 1087.05 234.85
  C 1093.89 238.75 1099.47 242.42 1106.93 246.33
  Q 1119.47 252.88 1135.29 262.37
  Q 1140.23 265.33 1142.41 266.46
  Q 1147.89 269.29 1149.59 270.37
  Q 1153.39 272.80 1155.72 273.73
  C 1158.32 274.77 1160.83 276.75 1163.76 278.41
  Q 1176.87 285.84 1177.58 286.15
  Q 1179.49 286.99 1186.76 291.29
  Q 1193.67 295.38 1195.86 296.56
  Q 1206.07 302.08 1207.16 302.83
  C 1209.65 304.52 1211.16 305.84 1213.19 306.77
  Q 1216.61 308.34 1220.19 310.93
  C 1221.93 312.20 1223.85 312.89 1225.81 313.67
  A 6.38 5.83 69.4 0 1 1226.83 314.19
  Q 1240.55 322.80 1251.24 328.07
  Q 1257.32 331.06 1259.92 333.03
  C 1263.04 335.40 1267.43 337.73 1270.69 340.74
  C 1280.60 349.89 1290.77 360.06 1297.13 371.10
  Q 1299.08 374.48 1303.69 383.55
  C 1306.81 389.69 1309.57 395.47 1311.41 402.44
  Q 1313.91 411.89 1315.21 416.98
  C 1316.47 421.88 1316.33 425.63 1317.10 430.30
  Q 1317.32 431.67 1317.33 435.70
  Q 1317.36 499.39 1317.30 505.75
  C 1316.72 563.62 1317.22 621.01 1317.04 685.41
  Q 1316.56 857.83 1316.77 1054.50
  Q 1316.78 1063.94 1315.59 1074.63
  Q 1315.09 1079.07 1314.14 1082.35
  C 1313.30 1085.25 1312.88 1088.90 1311.94 1092.60
  C 1308.61 1105.72 1301.72 1120.90 1292.43 1131.92
  Q 1283.36 1142.69 1277.81 1148.54
  Q 1274.89 1151.63 1264.77 1160.21
  Q 1260.89 1163.50 1254.92 1166.76
  Q 1234.81 1177.73 1225.42 1183.45
  Q 1211.13 1192.15 1205.38 1195.08
  C 1198.09 1198.80 1194.29 1201.57 1186.27 1206.51
  C 1184.05 1207.89 1180.84 1208.86 1178.55 1210.19
  Q 1149.18 1227.27 1145.86 1229.11
  C 1136.37 1234.38 1131.12 1236.87 1124.04 1241.40
  Q 1120.11 1243.91 1110.40 1249.33
  Q 1102.88 1253.52 1093.27 1259.48
  C 1085.97 1264.00 1077.86 1267.72 1070.05 1272.39
  Q 1050.41 1284.14 1045.71 1286.70
  Q 1005.81 1308.49 987.40 1320.02
  C 983.24 1322.63 977.53 1325.05 973.44 1327.41
  Q 925.80 1354.85 917.60 1359.34
  Q 895.62 1371.38 885.87 1377.87
  C 883.10 1379.72 879.78 1380.65 876.77 1382.51
  Q 868.45 1387.67 857.62 1393.80
  Q 854.33 1395.66 850.71 1397.75
  Q 850.63 1397.80 824.10 1412.90
  Q 817.39 1416.71 810.90 1420.37
  Q 794.12 1429.82 787.18 1434.02
  C 783.89 1436.02 779.76 1437.47 776.94 1439.18
  Q 755.39 1452.31 731.46 1465.36
  C 727.46 1467.54 724.19 1468.90 719.32 1471.26
  C 711.81 1474.90 703.27 1478.57 695.02 1479.65
  C 689.02 1480.44 683.76 1481.64 677.43 1481.65
  C 673.57 1481.66 668.84 1482.12 664.43 1481.43
  Q 662.43 1481.11 660.60 1481.12
  C 647.86 1481.15 635.21 1479.79 623.57 1474.82
  C 612.94 1470.28 600.74 1464.66 590.22 1458.42
  C 582.62 1453.91 575.56 1450.54 568.23 1446.19
  Q 540.70 1429.85 506.88 1410.88
  C 504.97 1409.81 502.77 1408.92 500.93 1407.76
  C 494.91 1404.00 488.93 1399.96 483.24 1396.98
  C 476.79 1393.61 470.29 1390.19 463.72 1385.98
  C 459.73 1383.42 455.54 1381.51 450.14 1378.27
  Q 431.97 1367.36 409.92 1355.26
  Q 402.72 1351.31 396.36 1347.45
  C 389.42 1343.24 384.06 1340.67 378.20 1337.17
  C 370.29 1332.44 358.86 1326.39 351.41 1321.76
  Q 342.86 1316.45 338.14 1314.04
  Q 332.96 1311.39 325.14 1306.53
  C 319.07 1302.75 309.71 1298.28 302.76 1294.22
  C 293.42 1288.76 283.72 1283.30 274.89 1278.14
  Q 238.59 1256.94 217.05 1244.74
  Q 211.45 1241.57 205.09 1238.34
  C 194.49 1232.98 186.12 1227.82 174.20 1221.03
  Q 170.78 1219.08 160.99 1213.24
  C 154.66 1209.46 147.31 1205.65 141.75 1202.50
  Q 120.01 1190.20 105.71 1182.04
  C 104.65 1181.43 103.05 1180.90 102.11 1180.33
  Q 88.13 1171.73 79.16 1167.39
  Q 73.36 1164.59 69.18 1161.27
  Q 54.29 1149.41 46.64 1139.43
  Q 32.10 1120.46 23.30 1096.75
  C 20.27 1088.59 17.94 1079.23 17.34 1071.43
  Z
  M 600.02 925.43
  L 600.22 870.22
  Q 600.53 869.78 601.51 869.80
  Q 608.57 869.97 614.63 869.85
  A 1.68 1.67 89.5 0 0 616.27 868.17
  L 616.27 849.81
  A 1.65 1.65 0.0 0 0 614.28 848.19
  C 606.82 849.74 597.42 850.43 596.31 840.23
  C 595.93 836.71 598.80 834.05 601.67 832.62
  Q 603.35 831.78 606.92 831.95
  Q 612.56 832.20 615.46 832.41
  A 0.58 0.58 0.0 0 0 616.09 831.83
  L 616.09 811.86
  A 1.82 1.81 -89.4 0 0 614.32 810.04
  L 600.92 809.73
  A 0.30 0.30 0.0 0 1 600.77 809.69
  Q 600.06 809.35 600.25 808.77
  L 600.11 758.00
  Q 600.31 611.46 599.87 465.00
  C 599.77 429.94 600.14 400.09 599.92 369.00
  Q 599.92 368.15 599.49 364.25
  A 0.90 0.90 0.0 0 0 598.59 363.44
  L 437.03 363.44
  A 0.74 0.74 0.0 0 0 436.29 364.18
  L 436.29 1117.56
  A 0.90 0.90 0.0 0 0 437.19 1118.46
  Q 516.40 1118.66 594.68 1118.67
  Q 596.11 1118.67 599.14 1118.21
  A 0.64 0.63 88.3 0 0 599.68 1117.63
  Q 600.18 1111.14 600.18 1109.50
  Q 600.06 1027.30 600.21 960.00
  Q 600.25 942.75 600.02 925.43
  Z
  M 632.02 372.26
  A 0.88 0.88 0.0 0 0 632.90 373.14
  L 685.33 373.14
  A 0.88 0.88 0.0 0 0 686.20 372.38
  L 687.23 364.67
  A 0.88 0.88 0.0 0 0 686.36 363.67
  L 632.90 363.67
  A 0.88 0.88 0.0 0 0 632.02 364.55
  L 632.02 372.26
  Z
  M 634.78 387.98
  Q 633.85 387.72 633.04 388.02
  A 0.92 0.92 0.0 0 0 632.46 388.74
  Q 632.19 390.56 632.20 391.76
  Q 632.55 423.66 632.26 444.01
  Q 632.21 447.00 632.63 449.83
  A 0.61 0.60 -4.9 0 0 633.24 450.34
  Q 656.75 449.76 681.50 450.25
  C 706.83 450.74 733.44 456.83 755.95 469.05
  Q 779.93 482.07 799.09 502.07
  Q 804.71 507.93 809.40 514.06
  Q 815.59 522.15 818.65 526.85
  Q 834.34 551.01 840.59 579.89
  Q 842.64 589.36 844.54 597.55
  A 0.80 0.78 2.0 0 0 845.10 598.14
  Q 852.71 600.36 853.70 607.61
  C 855.52 620.96 836.56 625.49 832.52 612.94
  Q 829.71 604.23 837.30 599.07
  A 1.48 1.48 0.0 0 0 837.93 597.64
  C 835.00 576.95 828.74 556.10 817.96 538.08
  C 800.80 509.40 776.10 485.33 745.63 471.39
  C 728.58 463.59 711.01 458.29 692.57 456.93
  C 674.23 455.59 659.29 456.21 633.26 456.93
  A 1.16 1.16 0.0 0 0 632.13 458.09
  L 632.13 502.43
  A 0.88 0.87 6.2 0 0 632.82 503.28
  Q 634.20 503.59 636.25 503.58
  Q 654.46 503.47 680.19 503.63
  Q 696.12 503.72 711.29 508.46
  Q 751.83 521.14 775.08 556.96
  C 793.01 584.57 798.22 618.70 790.35 650.60
  Q 786.86 664.77 782.37 674.09
  Q 777.83 683.52 768.47 695.84
  C 751.68 717.39 726.17 733.87 699.25 738.65
  Q 690.40 740.23 678.17 740.13
  Q 663.97 740.03 637.50 740.12
  Q 634.84 740.13 633.79 740.28
  A 0.76 0.76 0.0 0 0 633.13 741.03
  L 633.13 788.34
  A 0.52 0.52 0.0 0 0 633.63 788.86
  Q 657.04 789.64 679.25 789.42
  Q 693.75 789.27 705.25 788.21
  Q 731.34 785.80 754.99 774.20
  C 773.92 764.90 792.24 750.81 806.13 733.75
  C 816.37 721.16 824.46 708.47 830.10 693.33
  C 830.59 692.02 831.55 690.84 832.06 689.58
  A 0.81 0.81 0.0 0 0 831.73 688.58
  Q 821.04 682.06 818.58 671.65
  Q 816.04 660.87 822.04 650.62
  C 827.80 639.00 841.08 636.91 852.09 641.55
  C 864.21 646.67 868.19 660.62 864.77 672.52
  Q 860.47 687.49 843.45 690.23
  Q 840.62 690.69 837.92 690.15
  A 0.61 0.61 0.0 0 0 837.23 690.54
  C 831.68 706.22 824.16 721.11 813.58 734.27
  Q 799.06 752.33 781.36 765.35
  Q 739.79 795.93 687.49 795.66
  Q 682.23 795.64 676.96 795.58
  L 633.78 795.01
  A 0.71 0.70 -89.6 0 0 633.07 795.72
  L 633.07 833.12
  A 0.70 0.70 0.0 0 0 633.77 833.82
  L 660.64 833.82
  A 1.46 1.45 -81.7 0 0 662.03 832.78
  Q 663.91 826.32 668.71 822.24
  Q 677.61 814.67 688.87 816.51
  Q 697.27 818.63 702.00 822.77
  C 713.14 832.52 713.21 849.04 703.99 859.76
  Q 696.33 868.65 682.26 867.52
  Q 666.87 864.33 661.63 850.00
  A 1.87 1.87 0.0 0 0 659.88 848.78
  L 633.73 848.78
  A 0.97 0.96 -90.0 0 0 632.77 849.75
  L 632.77 880.93
  A 1.52 1.51 90.0 0 0 634.28 882.45
  L 674.94 882.54
  L 700.57 880.98
  C 712.74 880.18 724.67 878.10 736.81 875.73
  C 794.39 864.47 843.39 831.40 879.61 785.76
  C 887.42 775.91 892.93 768.55 899.07 758.11
  Q 928.97 708.37 934.92 650.41
  Q 938.49 615.80 933.48 581.20
  C 929.86 554.10 920.86 527.81 909.11 503.30
  C 900.65 485.67 889.19 467.88 877.38 453.64
  Q 859.96 432.65 838.04 415.45
  C 832.75 411.30 823.61 405.02 816.32 400.46
  Q 777.76 376.36 733.17 367.97
  A 0.59 0.58 85.0 0 0 732.52 368.75
  C 738.23 383.91 732.30 403.56 714.50 406.72
  C 702.13 408.91 689.07 402.17 686.68 389.07
  A 1.62 1.62 0.0 0 0 685.09 387.74
  L 634.78 387.98
  Z
  M 709.5691 371.8010
  A 9.96 9.64 -89.2 0 0 699.7909 381.6254
  A 9.96 9.64 -89.2 0 0 709.2909 391.7190
  A 9.96 9.64 -89.2 0 0 719.0691 381.8946
  A 9.96 9.64 -89.2 0 0 709.5691 371.8010
  Z
  M 851.28 664.48
  A 9.72 9.72 0.0 0 0 841.56 654.76
  A 9.72 9.72 0.0 0 0 831.84 664.48
  A 9.72 9.72 0.0 0 0 841.56 674.20
  A 9.72 9.72 0.0 0 0 851.28 664.48
  Z
  M 675.7356 840.0804
  A 10.08 9.77 -169.6 0 0 683.8863 851.5095
  A 10.08 9.77 -169.6 0 0 695.5644 843.7196
  A 10.08 9.77 -169.6 0 0 687.4137 832.2905
  A 10.08 9.77 -169.6 0 0 675.7356 840.0804
  Z"
/>
<path fill="#0b3a67" d="
  M 600.11 758.00
  C 578.93 770.06 556.44 780.31 542.52 801.54
  C 521.67 833.36 523.46 876.82 555.47 900.80
  Q 564.31 907.42 570.32 910.47
  Q 585.09 917.96 600.02 925.43
  Q 600.25 942.75 600.21 960.00
  Q 600.06 1027.30 600.18 1109.50
  Q 600.18 1111.14 599.68 1117.63
  A 0.64 0.63 88.3 0 1 599.14 1118.21
  Q 596.11 1118.67 594.68 1118.67
  Q 516.40 1118.66 437.19 1118.46
  A 0.90 0.90 0.0 0 1 436.29 1117.56
  L 436.29 364.18
  A 0.74 0.74 0.0 0 1 437.03 363.44
  L 598.59 363.44
  A 0.90 0.90 0.0 0 1 599.49 364.25
  Q 599.92 368.15 599.92 369.00
  C 600.14 400.09 599.77 429.94 599.87 465.00
  Q 600.31 611.46 600.11 758.00
  Z"
/>
<path fill="#3bbdd2" d="
  M 632.02 372.26
  L 632.02 364.55
  A 0.88 0.88 0.0 0 1 632.90 363.67
  L 686.36 363.67
  A 0.88 0.88 0.0 0 1 687.23 364.67
  L 686.20 372.38
  A 0.88 0.88 0.0 0 1 685.33 373.14
  L 632.90 373.14
  A 0.88 0.88 0.0 0 1 632.02 372.26
  Z"
/>
<path fill="#3bbdd2" d="
  M 933.48 581.20
  Q 915.12 570.45 902.94 560.32
  C 886.59 546.72 876.46 538.43 861.91 529.16
  C 848.88 520.86 836.03 512.15 822.40 504.97
  Q 805.42 480.74 783.94 460.45
  Q 779.17 455.95 772.60 450.59
  C 759.66 440.02 746.42 429.02 730.43 421.10
  Q 718.47 415.18 715.74 414.01
  Q 711.70 412.26 703.51 410.23
  Q 699.01 409.11 694.11 406.23
  Q 689.51 403.53 685.86 402.05
  Q 672.63 396.67 658.59 393.19
  C 652.84 391.77 646.10 391.26 641.38 390.57
  Q 638.53 390.15 637.11 388.51
  A 1.20 1.20 0.0 0 0 636.30 388.10
  L 634.78 387.98
  L 685.09 387.74
  A 1.62 1.62 0.0 0 1 686.68 389.07
  C 689.07 402.17 702.13 408.91 714.50 406.72
  C 732.30 403.56 738.23 383.91 732.52 368.75
  A 0.59 0.58 85.0 0 1 733.17 367.97
  Q 777.76 376.36 816.32 400.46
  C 823.61 405.02 832.75 411.30 838.04 415.45
  Q 859.96 432.65 877.38 453.64
  C 889.19 467.88 900.65 485.67 909.11 503.30
  C 920.86 527.81 929.86 554.10 933.48 581.20
  Z"
/>
<ellipse fill="#3bbdd2" cx="0.00" cy="0.00" transform="translate(709.43,381.76) rotate(-89.2)" rx="9.96" ry="9.64"/>
<path fill="#3e87c0" d="
  M 634.78 387.98
  L 636.30 388.10
  A 1.20 1.20 0.0 0 1 637.11 388.51
  Q 638.53 390.15 641.38 390.57
  C 646.10 391.26 652.84 391.77 658.59 393.19
  Q 672.63 396.67 685.86 402.05
  Q 689.51 403.53 694.11 406.23
  Q 699.01 409.11 703.51 410.23
  Q 711.70 412.26 715.74 414.01
  Q 718.47 415.18 730.43 421.10
  C 746.42 429.02 759.66 440.02 772.60 450.59
  Q 779.17 455.95 783.94 460.45
  Q 805.42 480.74 822.40 504.97
  Q 828.10 513.76 833.58 522.59
  Q 860.43 565.80 863.10 616.12
  A 1.24 1.20 -71.2 0 0 863.49 616.95
  Q 874.57 627.20 885.20 632.80
  Q 907.75 644.69 934.92 650.41
  Q 928.97 708.37 899.07 758.11
  C 885.81 761.12 874.47 762.13 861.39 757.44
  Q 849.15 753.06 837.46 746.94
  Q 847.99 725.07 853.89 701.34
  A 0.90 0.90 0.0 0 0 853.65 700.49
  L 843.45 690.23
  Q 860.47 687.49 864.77 672.52
  C 868.19 660.62 864.21 646.67 852.09 641.55
  C 841.08 636.91 827.80 639.00 822.04 650.62
  L 819.89 649.50
  Q 822.86 630.52 821.10 611.36
  C 819.13 589.87 813.39 567.98 803.28 549.40
  Q 790.49 525.87 770.46 509.06
  Q 755.43 496.45 740.64 489.32
  Q 708.84 474.01 672.82 476.53
  A 1.35 1.35 0.0 0 1 671.51 475.75
  C 668.07 468.41 658.79 465.20 652.48 471.28
  C 641.87 481.51 658.29 498.99 668.71 487.07
  C 669.92 485.69 670.33 483.79 671.53 482.66
  A 1.56 1.53 20.5 0 1 672.43 482.26
  C 709.17 479.04 749.74 495.27 775.01 521.98
  Q 781.91 529.26 782.84 530.41
  Q 791.92 541.65 799.30 555.70
  Q 803.25 563.22 808.28 577.78
  C 814.35 595.36 816.46 615.50 815.11 633.73
  C 814.05 648.16 812.46 661.82 807.61 675.16
  Q 803.73 685.85 801.22 691.25
  Q 800.04 693.81 798.77 695.67
  A 1.45 1.44 -73.8 0 1 797.64 696.30
  C 793.40 696.53 789.03 696.44 786.06 699.81
  Q 780.89 705.70 783.22 712.65
  C 783.81 714.39 784.73 715.75 785.13 717.08
  A 1.32 1.32 0.0 0 1 784.89 718.29
  L 779.09 725.47
  Q 772.51 711.17 768.47 695.84
  Q 777.83 683.52 782.37 674.09
  Q 786.86 664.77 790.35 650.60
  C 798.22 618.70 793.01 584.57 775.08 556.96
  Q 751.83 521.14 711.29 508.46
  Q 696.12 503.72 680.19 503.63
  Q 654.46 503.47 636.25 503.58
  Q 634.20 503.59 632.82 503.28
  A 0.88 0.87 6.2 0 1 632.13 502.43
  L 632.13 458.09
  A 1.16 1.16 0.0 0 1 633.26 456.93
  C 659.29 456.21 674.23 455.59 692.57 456.93
  C 711.01 458.29 728.58 463.59 745.63 471.39
  C 776.10 485.33 800.80 509.40 817.96 538.08
  C 828.74 556.10 835.00 576.95 837.93 597.64
  A 1.48 1.48 0.0 0 1 837.30 599.07
  Q 829.71 604.23 832.52 612.94
  C 836.56 625.49 855.52 620.96 853.70 607.61
  Q 852.71 600.36 845.10 598.14
  A 0.80 0.78 2.0 0 1 844.54 597.55
  Q 842.64 589.36 840.59 579.89
  Q 834.34 551.01 818.65 526.85
  Q 815.59 522.15 809.40 514.06
  Q 804.71 507.93 799.09 502.07
  Q 779.93 482.07 755.95 469.05
  C 733.44 456.83 706.83 450.74 681.50 450.25
  Q 656.75 449.76 633.24 450.34
  A 0.61 0.60 -4.9 0 1 632.63 449.83
  Q 632.21 447.00 632.26 444.01
  Q 632.55 423.66 632.20 391.76
  Q 632.19 390.56 632.46 388.74
  A 0.92 0.92 0.0 0 1 633.04 388.02
  Q 633.85 387.72 634.78 387.98
  Z"
/>
<path fill="#f7f8f8" d="
  M 819.89 649.50
  Q 816.20 667.95 809.55 685.53
  Q 807.14 691.91 803.71 697.35
  A 0.98 0.97 48.1 0 0 803.66 698.30
  C 804.05 699.05 805.39 700.07 806.02 701.21
  Q 809.56 707.67 807.35 713.37
  C 804.89 719.69 799.23 722.41 792.68 719.94
  A 1.45 1.44 30.2 0 0 791.05 720.37
  C 785.68 726.83 781.05 732.66 775.38 737.63
  C 749.47 760.36 715.74 770.90 681.46 769.47
  A 1.48 1.47 -74.5 0 0 680.10 770.24
  C 677.94 774.14 673.80 777.70 668.99 777.29
  C 663.95 776.86 660.30 773.06 659.05 768.44
  Q 657.31 761.99 662.31 756.98
  C 668.66 750.61 677.23 755.18 680.21 762.17
  A 2.43 2.41 78.8 0 0 682.38 763.63
  Q 699.66 763.95 716.81 760.38
  C 741.03 755.33 762.18 743.43 779.09 725.47
  L 784.89 718.29
  A 1.32 1.32 0.0 0 0 785.13 717.08
  C 784.73 715.75 783.81 714.39 783.22 712.65
  Q 780.89 705.70 786.06 699.81
  C 789.03 696.44 793.40 696.53 797.64 696.30
  A 1.45 1.44 -73.8 0 0 798.77 695.67
  Q 800.04 693.81 801.22 691.25
  Q 803.73 685.85 807.61 675.16
  C 812.46 661.82 814.05 648.16 815.11 633.73
  C 816.46 615.50 814.35 595.36 808.28 577.78
  Q 803.25 563.22 799.30 555.70
  Q 791.92 541.65 782.84 530.41
  Q 781.91 529.26 775.01 521.98
  C 749.74 495.27 709.17 479.04 672.43 482.26
  A 1.56 1.53 20.5 0 0 671.53 482.66
  C 670.33 483.79 669.92 485.69 668.71 487.07
  C 658.29 498.99 641.87 481.51 652.48 471.28
  C 658.79 465.20 668.07 468.41 671.51 475.75
  A 1.35 1.35 0.0 0 0 672.82 476.53
  Q 708.84 474.01 740.64 489.32
  Q 755.43 496.45 770.46 509.06
  Q 790.49 525.87 803.28 549.40
  C 813.39 567.98 819.13 589.87 821.10 611.36
  Q 822.86 630.52 819.89 649.50
  Z
  M 789.0816 707.4613
  A 6.43 6.25 -169.8 0 0 794.3032 714.7512
  A 6.43 6.25 -169.8 0 0 801.7384 709.7387
  A 6.43 6.25 -169.8 0 0 796.5168 702.4488
  A 6.43 6.25 -169.8 0 0 789.0816 707.4613
  Z"
/>
<path fill="#45a5d1" d="
  M 933.48 581.20
  Q 938.49 615.80 934.92 650.41
  Q 907.75 644.69 885.20 632.80
  Q 874.57 627.20 863.49 616.95
  A 1.24 1.20 -71.2 0 1 863.10 616.12
  Q 860.43 565.80 833.58 522.59
  Q 828.10 513.76 822.40 504.97
  C 836.03 512.15 848.88 520.86 861.91 529.16
  C 876.46 538.43 886.59 546.72 902.94 560.32
  Q 915.12 570.45 933.48 581.20
  Z"
/>
<path fill="#5664b5" d="
  M 822.04 650.62
  Q 816.04 660.87 818.58 671.65
  Q 821.04 682.06 831.73 688.58
  A 0.81 0.81 0.0 0 1 832.06 689.58
  C 831.55 690.84 830.59 692.02 830.10 693.33
  C 824.46 708.47 816.37 721.16 806.13 733.75
  C 792.24 750.81 773.92 764.90 754.99 774.20
  Q 731.34 785.80 705.25 788.21
  Q 693.75 789.27 679.25 789.42
  Q 657.04 789.64 633.63 788.86
  A 0.52 0.52 0.0 0 1 633.13 788.34
  L 633.13 741.03
  A 0.76 0.76 0.0 0 1 633.79 740.28
  Q 634.84 740.13 637.50 740.12
  Q 663.97 740.03 678.17 740.13
  Q 690.40 740.23 699.25 738.65
  C 726.17 733.87 751.68 717.39 768.47 695.84
  Q 772.51 711.17 779.09 725.47
  C 762.18 743.43 741.03 755.33 716.81 760.38
  Q 699.66 763.95 682.38 763.63
  A 2.43 2.41 78.8 0 1 680.21 762.17
  C 677.23 755.18 668.66 750.61 662.31 756.98
  Q 657.31 761.99 659.05 768.44
  C 660.30 773.06 663.95 776.86 668.99 777.29
  C 673.80 777.70 677.94 774.14 680.10 770.24
  A 1.48 1.47 -74.5 0 1 681.46 769.47
  C 715.74 770.90 749.47 760.36 775.38 737.63
  C 781.05 732.66 785.68 726.83 791.05 720.37
  A 1.45 1.44 30.2 0 1 792.68 719.94
  C 799.23 722.41 804.89 719.69 807.35 713.37
  Q 809.56 707.67 806.02 701.21
  C 805.39 700.07 804.05 699.05 803.66 698.30
  A 0.98 0.97 48.1 0 1 803.71 697.35
  Q 807.14 691.91 809.55 685.53
  Q 816.20 667.95 819.89 649.50
  L 822.04 650.62
  Z"
/>
<circle fill="#5a76c3" cx="841.56" cy="664.48" r="9.72"/>
<path fill="#5664b5" d="
  M 843.45 690.23
  L 853.65 700.49
  A 0.90 0.90 0.0 0 1 853.89 701.34
  Q 847.99 725.07 837.46 746.94
  C 834.92 751.41 832.58 756.27 830.16 760.41
  Q 818.37 780.58 802.90 798.81
  Q 794.17 809.11 784.42 818.03
  Q 770.52 830.75 764.42 835.67
  Q 747.07 849.67 716.83 869.37
  Q 715.04 870.54 707.40 873.96
  C 704.79 875.12 703.79 875.94 701.51 877.36
  A 1.06 1.06 0.0 0 0 701.01 878.12
  L 700.57 880.98
  L 674.94 882.54
  Q 677.86 874.64 682.26 867.52
  Q 696.33 868.65 703.99 859.76
  C 713.21 849.04 713.14 832.52 702.00 822.77
  Q 697.27 818.63 688.87 816.51
  Q 682.26 806.47 676.96 795.58
  Q 682.23 795.64 687.49 795.66
  Q 739.79 795.93 781.36 765.35
  Q 799.06 752.33 813.58 734.27
  C 824.16 721.11 831.68 706.22 837.23 690.54
  A 0.61 0.61 0.0 0 1 837.92 690.15
  Q 840.62 690.69 843.45 690.23
  Z"
/>
<ellipse fill="#5a76c3" cx="0.00" cy="0.00" transform="translate(795.41,708.60) rotate(-169.8)" rx="6.43" ry="6.25"/>
<path fill="#5a76c3" d="
  M 837.46 746.94
  Q 849.15 753.06 861.39 757.44
  C 874.47 762.13 885.81 761.12 899.07 758.11
  C 892.93 768.55 887.42 775.91 879.61 785.76
  C 843.39 831.40 794.39 864.47 736.81 875.73
  C 724.67 878.10 712.74 880.18 700.57 880.98
  L 701.01 878.12
  A 1.06 1.06 0.0 0 1 701.51 877.36
  C 703.79 875.94 704.79 875.12 707.40 873.96
  Q 715.04 870.54 716.83 869.37
  Q 747.07 849.67 764.42 835.67
  Q 770.52 830.75 784.42 818.03
  Q 794.17 809.11 802.90 798.81
  Q 818.37 780.58 830.16 760.41
  C 832.58 756.27 834.92 751.41 837.46 746.94
  Z"
/>
<path fill="#5e5972" d="
  M 600.11 758.00
  L 600.25 808.77
  Q 599.89 809.41 599.53 809.44
  Q 581.07 811.28 573.69 828.14
  Q 569.91 836.76 571.79 845.45
  Q 576.62 867.81 600.22 870.22
  L 600.02 925.43
  Q 585.09 917.96 570.32 910.47
  Q 564.31 907.42 555.47 900.80
  C 523.46 876.82 521.67 833.36 542.52 801.54
  C 556.44 780.31 578.93 770.06 600.11 758.00
  Z"
/>
<path fill="#895ba1" d="
  M 676.96 795.58
  Q 682.26 806.47 688.87 816.51
  Q 677.61 814.67 668.71 822.24
  Q 663.91 826.32 662.03 832.78
  A 1.46 1.45 -81.7 0 1 660.64 833.82
  L 633.77 833.82
  A 0.70 0.70 0.0 0 1 633.07 833.12
  L 633.07 795.72
  A 0.71 0.70 -89.6 0 1 633.78 795.01
  L 676.96 795.58
  Z"
/>
<path fill="#f3a071" d="
  M 600.25 808.77
  Q 600.06 809.35 600.77 809.69
  A 0.30 0.30 0.0 0 0 600.92 809.73
  L 614.32 810.04
  A 1.82 1.81 -89.4 0 1 616.09 811.86
  L 616.09 831.83
  A 0.58 0.58 0.0 0 1 615.46 832.41
  Q 612.56 832.20 606.92 831.95
  Q 603.35 831.78 601.67 832.62
  C 598.80 834.05 595.93 836.71 596.31 840.23
  C 597.42 850.43 606.82 849.74 614.28 848.19
  A 1.65 1.65 0.0 0 1 616.27 849.81
  L 616.27 868.17
  A 1.68 1.67 89.5 0 1 614.63 869.85
  Q 608.57 869.97 601.51 869.80
  Q 600.53 869.78 600.22 870.22
  Q 576.62 867.81 571.79 845.45
  Q 569.91 836.76 573.69 828.14
  Q 581.07 811.28 599.53 809.44
  Q 599.89 809.41 600.25 808.77
  Z"
/>
<ellipse fill="#895ba1" cx="0.00" cy="0.00" transform="translate(685.65,841.90) rotate(-169.6)" rx="10.08" ry="9.77"/>
<path fill="#895ba1" d="
  M 682.26 867.52
  Q 677.86 874.64 674.94 882.54
  L 634.28 882.45
  A 1.52 1.51 90.0 0 1 632.77 880.93
  L 632.77 849.75
  A 0.97 0.96 -90.0 0 1 633.73 848.78
  L 659.88 848.78
  A 1.87 1.87 0.0 0 1 661.63 850.00
  Q 666.87 864.33 682.26 867.52
  Z"
/>
</svg>
